<?xml version="1.0" encoding="UTF-8"?>
<svg width="593px" height="472px" viewBox="0 0 593 472" version="1.1" xmlns="http://www.w3.org/2000/svg" xmlns:xlink="http://www.w3.org/1999/xlink">
    <!-- Generator: Sketch 60 (88103) - https://sketch.com -->
    <title>undraw_book_lover_mkck</title>
    <desc>Created with Sketch.</desc>
    <defs>
        <linearGradient x1="49.9983096%" y1="100.00595%" x2="49.9983096%" y2="-0.00150157813%" id="linearGradient-1">
            <stop stop-color="#808080" stop-opacity="0.25" offset="0%"></stop>
            <stop stop-color="#808080" stop-opacity="0.12" offset="54%"></stop>
            <stop stop-color="#808080" stop-opacity="0.1" offset="100%"></stop>
        </linearGradient>
    </defs>
    <g id="Web" stroke="none" stroke-width="1" fill="none" fill-rule="evenodd">
        <g id="Login" transform="translate(-781.000000, -261.000000)">
            <g id="undraw_book_lover_mkck" transform="translate(781.000000, 261.000000)">
                <path d="M347.892878,80.5514904 C310.389317,79.2462154 274.66474,67.1274616 240.556897,53.8658669 C206.449053,40.6042723 172.665715,25.9097757 136.060338,18.8844953 C112.516307,14.365343 85.5881469,13.7272085 66.6219607,26.3622711 C48.3627328,38.5448383 42.4636868,59.5162577 39.2939636,78.9967628 C36.9065305,93.6506508 35.5042032,109.0703 42.0464655,122.790191 C46.5837474,132.315799 54.6442317,140.321486 60.2129775,149.475815 C79.6079745,181.220104 65.9034128,220.366754 44.8858884,251.362686 C35.0348292,265.90635 23.5902164,279.788676 15.9875167,295.254735 C8.38481689,310.720794 4.86161456,328.466734 11.5139769,344.257661 C18.1141865,359.920962 33.8353179,371.662636 50.860266,379.929379 C85.4490731,396.723918 126.191895,401.52733 165.949611,404.248103 C253.931158,410.275573 342.376285,407.665023 430.589622,405.054473 C463.237191,404.085669 496.023834,403.105262 528.138287,398.052398 C545.974499,395.244606 564.38439,390.795068 577.335635,380.039602 C593.76952,366.389325 597.843222,343.271454 586.833215,326.157847 C568.353787,297.447597 517.296327,290.317895 504.362466,259.501801 C497.258114,242.544827 504.559487,223.656047 514.885715,207.923132 C537.044803,174.183222 574.183296,144.579583 576.141919,106.013056 C577.486298,79.5188728 559.626908,52.9956836 532.020763,40.4592418 C503.087623,27.273063 462.953249,28.9438151 441.617014,50.6925982 C419.631768,73.1027207 381.004026,81.7001325 347.892878,80.5514904 Z" id="Path" fill="#FF6366" fill-rule="nonzero" opacity="0.1"></path>
                <polygon id="Path" fill="#FF6366" fill-rule="nonzero" points="251.837724 401.924731 53.6887002 400.953867 34 354.579132 103.619614 349.503898 91.4856786 298.658539 229.185009 280.735346 97.3268719 234.703611 108.974524 231.924731 321 266.660727 309.323402 346.009951 292.633452 389.617433"></polygon>
                <path d="M57,381.106729 C57,381.106729 68.875,379.23335 76,387.50744 C76,387.50744 70.775,391.566428 59.5333333,385.946291 L57,381.106729 Z" id="Path" fill="#FF6366" fill-rule="nonzero"></path>
                <path d="M55.9520924,380.924731 C55.9520924,380.924731 48.260574,390.388146 52.0489338,400.924731 C52.0489338,400.924731 58.3169473,398.41684 59,385.642091 L55.9520924,380.924731 Z" id="Path" fill="#FF6366" fill-rule="nonzero"></path>
                <path d="M49,364.963265 C49,364.963265 53.8,356.183242 73,368.472996 C73,368.472996 70.44,374.375724 61.96,373.897124 C53.48,373.418525 51.24,369.589728 49,364.963265 Z" id="Path" fill="#FF6366" fill-rule="nonzero"></path>
                <path d="M47.3068178,363.934324 C47.3068178,363.934324 36.9993997,362.778831 36,385.830922 C36,385.830922 42.5345364,387.153961 47.1767184,379.862799 C51.8189004,372.571636 49.9147187,368.48119 47.3068178,363.934324 Z" id="Path" fill="#FF6366" fill-rule="nonzero"></path>
                <path d="M42,345.602741 C42,345.602741 47.617284,329.653935 68,340.998962 C68,340.998962 63.345679,355.632403 44.0864198,351.028624 L42,345.602741 Z" id="Path" fill="#FF6366" fill-rule="nonzero"></path>
                <path d="M35,322.111382 C35,322.111382 45.8196721,306.717586 65,320.989385 C65,320.989385 58.2786885,335.440703 36.6393443,327.586726 L35,322.111382 Z" id="Path" fill="#FF6366" fill-rule="nonzero"></path>
                <path d="M33,300.186257 C33,300.186257 45.377037,286.097824 64,300.186257 C64,300.186257 52.2659259,312.547864 33,303.785206 L33,300.186257 Z" id="Path" fill="#FF6366" fill-rule="nonzero"></path>
                <path d="M31,278.08109 C31,278.08109 43.7936508,262.545207 62,277.254713 C62,277.254713 47.5661376,290.972567 31,281.717147 L31,278.08109 Z" id="Path" fill="#FF6366" fill-rule="nonzero"></path>
                <path d="M32,258.672112 C32,258.672112 45.2488479,239.407426 62,252.462833 C62,252.462833 47.8064516,269.02091 32,262.333994 L32,258.672112 Z" id="Path" fill="#FF6366" fill-rule="nonzero"></path>
                <path d="M35,235.932462 C35,235.932462 49.3457447,216.781557 66,231.463917 C66,231.463917 49.0159574,248.061368 35,239.443461 L35,235.932462 Z" id="Path" fill="#FF6366" fill-rule="nonzero"></path>
                <path d="M39.7296417,216.636711 C39.7296417,216.636711 56.4303294,198.35657 71,205.638526 C71,205.638526 53.5986247,225.053216 39,221.487489 L39.7296417,216.636711 Z" id="Path" fill="#FF6366" fill-rule="nonzero"></path>
                <path d="M45.3730909,197.658878 C45.3730909,197.658878 64.736,174.868383 76,182.480927 C76,182.480927 61.7338182,200.157113 44,201.924731 L45.3730909,197.658878 Z" id="Path" fill="#FF6366" fill-rule="nonzero"></path>
                <path d="M54.2314065,175.26632 C54.2314065,175.26632 70.8556701,157.143335 83,161.642518 C83,161.642518 68.7783505,180.442676 52,180.924731 L54.2314065,175.26632 Z" id="Path" fill="#FF6366" fill-rule="nonzero"></path>
                <path d="M61.8235294,153.929468 C61.8235294,153.929468 80.7647059,136.16891 89,139.293453 C89,139.293453 75.3294118,159.027405 61,157.876258 L61.8235294,153.929468 Z" id="Path" fill="#FF6366" fill-rule="nonzero"></path>
                <path d="M69,134.751656 C69,134.751656 85.1726954,113.358416 94,115.016348 C94,115.016348 84.1925321,134.088484 69,136.924731 L69,134.751656 Z" id="Path" fill="#FF6366" fill-rule="nonzero"></path>
                <path d="M77.5734194,108.751072 C77.5734194,108.751072 91.4830968,92.8904193 99,92.9247312 C99,92.9247312 88.019871,114.118147 77,113.923397 L77.5734194,108.751072 Z" id="Path" fill="#FF6366" fill-rule="nonzero"></path>
                <path d="M82.6918225,91.6655911 L95.9959551,57.9247312 C95.9959551,57.9247312 96.6591945,88.4248774 81,97.9247312 L82.6918225,91.6655911 Z" id="Path" fill="#FF6366" fill-rule="nonzero"></path>
                <path d="M88.0926114,55.4531488 C88.0926114,55.4531488 90.3615908,27.2221279 88.9029612,24.9247312 C88.9029612,24.9247312 98.6966171,48.3968588 88,67.9247312 L88.0926114,55.4531488 Z" id="Path" fill="#FF6366" fill-rule="nonzero"></path>
                <path d="M41.3321791,345.730875 C41.3321791,345.730875 27.1701293,336.803727 18,358.643253 C18,358.643253 30.6038781,367.153683 43,351.300805 L41.3321791,345.730875 Z" id="Path" fill="#FF6366" fill-rule="nonzero"></path>
                <path d="M34.4405565,321.267497 C34.4405565,321.267497 17.3094435,313.437576 9,335.592888 C9,335.592888 22.2325042,344.717341 36,326.86763 L34.4405565,321.267497 Z" id="Path" fill="#FF6366" fill-rule="nonzero"></path>
                <path d="M32,301.186257 C32,301.186257 19.622963,287.097824 1,301.186257 C1,301.186257 12.7340741,313.547864 32,304.785206 L32,301.186257 Z" id="Path" fill="#FF6366" fill-rule="nonzero"></path>
                <path d="M31,278.08109 C31,278.08109 18.2063492,262.545207 0,277.254713 C0,277.254713 14.4338624,290.972567 31,281.717147 L31,278.08109 Z" id="Path" fill="#FF6366" fill-rule="nonzero"></path>
                <path d="M32,259.879053 C32,259.879053 23.1772933,237.802391 4,247.296228 C4,247.296228 14.3661045,266.87145 31.2167832,263.543953 L32,259.879053 Z" id="Path" fill="#FF6366" fill-rule="nonzero"></path>
                <path d="M36,236.670054 C36,236.670054 27.2971429,214.296325 8,224.66902 C8,224.66902 19.8171429,245.176822 35.1428571,240.123755 L36,236.670054 Z" id="Path" fill="#FF6366" fill-rule="nonzero"></path>
                <path d="M42,216.524173 C42,216.524173 38.4705882,192.110592 22,189.924731 C22,189.924731 25.4941176,215.670592 39.7823529,220.924731 L42,216.524173 Z" id="Path" fill="#FF6366" fill-rule="nonzero"></path>
                <path d="M46,196.713065 C46,196.713065 44.6229894,166.963065 31,165.924731 C31,165.924731 31.4590035,188.505565 44.4641036,200.924731 L46,196.713065 Z" id="Path" fill="#FF6366" fill-rule="nonzero"></path>
                <path d="M56,173.822317 C56,173.822317 51.9551724,148.961283 39,145.924731 C39,145.924731 40.6062069,170.000248 54.7162069,179.924731 L56,173.822317 Z" id="Path" fill="#FF6366" fill-rule="nonzero"></path>
                <path d="M63,154.619457 C63,154.619457 62.8677517,128.728141 55.1053538,124.924731 C55.1053538,124.924731 50.2926671,148.366393 60.7517796,157.924731 L63,154.619457 Z" id="Path" fill="#FF6366" fill-rule="nonzero"></path>
                <path d="M70,135.187122 C70,135.187122 68.8491382,108.662341 60.3364143,104.924731 C60.3364143,104.924731 57.4257691,125.915985 68.7273539,136.924731 L70,135.187122 Z" id="Path" fill="#FF6366" fill-rule="nonzero"></path>
                <path d="M79,111.582864 C79,111.582864 78.9519513,89.9902432 72.9578701,84.9247312 C72.9578701,84.9247312 66.9998256,108.577404 75.8708254,115.924731 L79,111.582864 Z" id="Path" fill="#FF6366" fill-rule="nonzero"></path>
                <path d="M81.7348718,90.5005221 L76.1383607,54.9247312 C76.1383607,54.9247312 68.5360969,84.076313 82,96.9247312 L81.7348718,90.5005221 Z" id="Path" fill="#FF6366" fill-rule="nonzero"></path>
                <path d="M82.3601045,55.8170389 C82.3601045,55.8170389 67.7046098,31.613962 68.0045417,28.9247312 C68.0045417,28.9247312 69.5630112,54.2911927 88,66.9247312 L82.3601045,55.8170389 Z" id="Path" fill="#FF6366" fill-rule="nonzero"></path>
                <path d="M84.8604651,48.9247312 C84.8604651,48.9247312 71.1860465,14.6956563 65,11.9247312 C65,11.9247312 84.5348837,21.8674625 86,47.9467576 L84.8604651,48.9247312 Z" id="Path" fill="#FF6366" fill-rule="nonzero"></path>
                <path d="M76.9085556,113.924731 L76,113.642502 C87.2017568,76.3594254 89.995142,52.5888003 83.8722674,46.6274247 L84.5212357,45.9247312 C91.0165616,52.2144144 88.3811861,75.7258493 76.9085556,113.924731 Z" id="Path" fill="#444053" fill-rule="nonzero"></path>
                <path d="M45.3832479,202.924731 L44,202.429818 C45.2263248,198.97707 46.545641,195.471919 47.9288889,192.019171 C59.9712821,161.951732 70.2235897,133.980397 76.7969231,112.506982 L78,111.924731 C71.4150427,133.438904 61.342906,162.481581 49.2888889,192.589777 C47.911453,195.978477 46.5979487,199.466161 45.3832479,202.924731 Z" id="Path" fill="#444053" fill-rule="nonzero"></path>
                <path d="M74.5375476,408.924731 C74.3518394,408.721636 55.682358,387.698426 42.6653712,351.808677 C35.0381905,330.796702 30.7934478,308.707803 30.0894414,286.365737 C29.1957205,258.437304 35.0571368,227.253551 45.0969885,198.924731 L46.1880244,200.201327 C23.6476869,263.781598 32.602306,318.263222 44.4818299,351.071733 C57.3595356,386.63653 75.8200951,407.427633 76,407.63653 L74.5375476,408.924731 Z" id="Path" fill="#444053" fill-rule="nonzero"></path>
                <path d="M365,363.924731 C365,363.924731 351.894712,379.982236 362.300322,404.257097 L257.66613,449.81236 L247.624716,451.924731 L243,431.613468 L246.092779,405.980653 L246.092779,391.971684 L365,363.924731 Z" id="Path" fill="#D5D6DB" fill-rule="nonzero"></path>
                <polygon id="Path" fill="#FF6366" fill-rule="nonzero" points="34 353.512568 179.373599 326.924731 372 357.710035 252.356345 400.924731"></polygon>
                <polygon id="Path" fill="#FF6366" fill-rule="nonzero" points="34 353.512568 179.373599 326.924731 372 357.710035 252.356345 400.924731"></polygon>
                <path d="M34.4773028,353.924731 C34.4773028,353.924731 20.8697262,379.613079 36.5506724,403.339645 L252.308877,449.924731 C252.308877,449.924731 238.916187,429.462015 253,401.05958 L34.4773028,353.924731 Z" id="Path" fill="#FF6366" fill-rule="nonzero"></path>
                <path d="M34.4773028,353.924731 C34.4773028,353.924731 20.8697262,379.613079 36.5506724,403.339645 L252.308877,449.924731 C252.308877,449.924731 238.916187,429.462015 253,401.05958 L34.4773028,353.924731 Z" id="Path" fill="#000000" fill-rule="nonzero" opacity="0.1"></path>
                <path d="M40,362.924731 C40,362.924731 33.25,381.744918 40,393.924731" id="Path" fill="#000000" fill-rule="nonzero" opacity="0.1"></path>
                <path d="M252.086622,450.017515 L372.16459,398.924731 C372.16459,398.924731 378.880619,400.36803 374.538359,405.275247 C370.196099,410.182463 254.402494,454.924731 254.402494,454.924731 L37,403.543288 L252.086622,450.017515 Z" id="Path" fill="#FF6366" fill-rule="nonzero"></path>
                <path d="M252.086622,450.017515 L372.16459,398.924731 C372.16459,398.924731 378.880619,400.36803 374.538359,405.275247 C370.196099,410.182463 254.402494,454.924731 254.402494,454.924731 L37,403.543288 L252.086622,450.017515 Z" id="Path" fill="#000000" fill-rule="nonzero" opacity="0.1"></path>
                <path d="M242,405.924731 C242,405.924731 230.75,419.924731 242,440.924731" id="Path" fill="#000000" fill-rule="nonzero" opacity="0.1"></path>
                <polygon id="Rectangle" fill="#000000" fill-rule="nonzero" opacity="0.1" transform="translate(272.073351, 415.156923) rotate(-18.450000) translate(-272.073351, -415.156923) " points="244.663767 414.867089 299.482936 414.867089 299.482936 415.446757 244.663767 415.446757"></polygon>
                <polygon id="Rectangle" fill="#000000" fill-rule="nonzero" opacity="0.1" transform="translate(277.284226, 416.622594) rotate(-20.820000) translate(-277.284226, -416.622594) " points="243.886675 416.33276 310.681777 416.33276 310.681777 416.912428 243.886675 416.912428"></polygon>
                <polygon id="Rectangle" fill="#000000" fill-rule="nonzero" opacity="0.1" transform="translate(282.247968, 419.329941) rotate(-22.260000) translate(-282.247968, -419.329941) " points="243.537763 419.040107 320.958173 419.040107 320.958173 419.619775 243.537763 419.619775"></polygon>
                <polygon id="Rectangle" fill="#000000" fill-rule="nonzero" opacity="0.1" transform="translate(287.876561, 420.494345) rotate(-24.310000) translate(-287.876561, -420.494345) " points="243.317509 420.204511 332.435613 420.204511 332.435613 420.784179 243.317509 420.784179"></polygon>
                <polygon id="Rectangle" fill="#000000" fill-rule="nonzero" opacity="0.1" transform="translate(292.564208, 421.683079) rotate(-23.610000) translate(-292.564208, -421.683079) " points="243.828651 421.393245 341.299765 421.393245 341.299765 421.972912 243.828651 421.972912"></polygon>
                <polygon id="Rectangle" fill="#000000" fill-rule="nonzero" opacity="0.1" transform="translate(302.793773, 422.042763) rotate(-23.360000) translate(-302.793773, -422.042763) " points="244.473411 421.752929 361.114135 421.752929 361.114135 422.332597 244.473411 422.332597"></polygon>
                <polygon id="Path" fill="#FFFFFF" fill-rule="nonzero" opacity="0.3" points="88 356.462045 189.913707 334.924731 252 346.857567 168.488666 373.924731"></polygon>
                <path d="M371.83875,357.924731 C371.83875,357.924731 377.127207,360.050691 374.023871,363.335212 C370.920535,366.619733 252,400.924731 252,400.924731 L371.83875,357.924731 Z" id="Path" fill="#FF6366" fill-rule="nonzero"></path>
                <path d="M423,308.924731 C423,308.924731 409.899872,324.974316 420.305975,349.251779 L315.666825,394.801033 L305.624935,396.924731 L301,376.616146 L304.139175,350.992514 L304.139175,336.967986 L423,308.924731 Z" id="Path" fill="#D5D6DB" fill-rule="nonzero"></path>
                <polygon id="Path" fill="#3A3768" fill-rule="nonzero" points="92 298.506747 237.367796 271.924731 430 302.710035 310.356345 345.924731"></polygon>
                <path d="M91.4808247,297.924731 C91.4808247,297.924731 77.8687451,323.613079 93.5481884,347.339645 L309.285714,393.924731 C309.285714,393.924731 295.900115,373.444654 310,345.053793 L91.4808247,297.924731 Z" id="Path" fill="#3A3768" fill-rule="nonzero"></path>
                <path d="M91.4808247,297.924731 C91.4808247,297.924731 77.8687451,323.613079 93.5481884,347.339645 L309.285714,393.924731 C309.285714,393.924731 295.900115,373.444654 310,345.053793 L241.777,330.337535 L91.4808247,297.924731 Z" id="Path" fill="#000000" fill-rule="nonzero" opacity="0.1"></path>
                <path d="M98,306.924731 C98,306.924731 91.25,325.739124 98,337.924731" id="Path" fill="#000000" fill-rule="nonzero" opacity="0.1"></path>
                <path d="M309.086071,394.017515 L429.169521,342.924731 C429.169521,342.924731 435.879743,344.36803 431.537494,349.275247 C427.195245,354.182463 311.401937,398.924731 311.401937,398.924731 L94,347.543288 L309.086071,394.017515 Z" id="Path" fill="#3A3768" fill-rule="nonzero"></path>
                <path d="M309.086071,394.017515 L429.169521,342.924731 C429.169521,342.924731 435.879743,344.36803 431.537494,349.275247 C427.195245,354.182463 311.401937,398.924731 311.401937,398.924731 L94,347.543288 L309.086071,394.017515 Z" id="Path" fill="#000000" fill-rule="nonzero" opacity="0.1"></path>
                <path d="M299,350.924731 C299,350.924731 287.75,364.924731 299,385.924731" id="Path" fill="#000000" fill-rule="nonzero" opacity="0.1"></path>
                <polygon id="Rectangle" fill="#000000" fill-rule="nonzero" opacity="0.1" transform="translate(329.633049, 359.410654) rotate(-18.450000) translate(-329.633049, -359.410654) " points="302.223465 359.12082 357.042634 359.12082 357.042634 359.700487 302.223465 359.700487"></polygon>
                <polygon id="Rectangle" fill="#000000" fill-rule="nonzero" opacity="0.1" transform="translate(334.851196, 360.873564) rotate(-20.820000) translate(-334.851196, -360.873564) " points="301.453645 360.58373 368.248748 360.58373 368.248748 361.163397 301.453645 361.163397"></polygon>
                <polygon id="Rectangle" fill="#000000" fill-rule="nonzero" opacity="0.1" transform="translate(339.806443, 363.572883) rotate(-22.260000) translate(-339.806443, -363.572883) " points="301.096237 363.283049 378.516648 363.283049 378.516648 363.862717 301.096237 363.862717"></polygon>
                <polygon id="Rectangle" fill="#000000" fill-rule="nonzero" opacity="0.1" transform="translate(345.441750, 364.738418) rotate(-24.310000) translate(-345.441750, -364.738418) " points="300.882698 364.448584 390.000802 364.448584 390.000802 365.028252 300.882698 365.028252"></polygon>
                <polygon id="Rectangle" fill="#000000" fill-rule="nonzero" opacity="0.1" transform="translate(350.121103, 365.919777) rotate(-23.610000) translate(-350.121103, -365.919777) " points="301.385545 365.629943 398.85666 365.629943 398.85666 366.209611 301.385545 366.209611"></polygon>
                <polygon id="Rectangle" fill="#000000" fill-rule="nonzero" opacity="0.1" transform="translate(360.355076, 366.279536) rotate(-23.360000) translate(-360.355076, -366.279536) " points="302.034715 365.989702 418.675438 365.989702 418.675438 366.56937 302.034715 366.56937"></polygon>
                <polygon id="Path" fill="#FFFFFF" fill-rule="nonzero" opacity="0.45" points="146 301.462045 247.913707 279.924731 310 291.857567 226.488666 318.924731"></polygon>
                <path d="M429.840606,302.924731 C429.840606,302.924731 435.124101,305.050977 432.026078,308.330148 C428.928055,311.609318 310,345.924731 310,345.924731 L429.840606,302.924731 Z" id="Path" fill="#3A3768" fill-rule="nonzero"></path>
                <path d="M428,244.924731 C428,244.924731 414.892227,273.743614 425.29981,298.013674 L320.645782,330.795371 L310.625592,332.924731 L306,312.617485 L309.093365,286.989741 L309.093365,272.966137 L428,244.924731 Z" id="Path" fill="#D5D6DB" fill-rule="nonzero"></path>
                <polygon id="Path" fill="#FF6366" fill-rule="nonzero" points="97 234.512568 242.371103 207.924731 435 238.710035 315.352596 281.924731"></polygon>
                <path d="M97.493242,234.924731 C97.493242,234.924731 83.8630663,260.613079 99.5432855,284.339645 L315.291486,330.924731 C315.291486,330.924731 301.899418,310.444654 316,282.05958 L97.493242,234.924731 Z" id="Path" fill="#FF6366" fill-rule="nonzero"></path>
                <path d="M97.493242,234.924731 C97.493242,234.924731 83.8630663,260.613079 99.5432855,284.339645 L315.291486,330.924731 C315.291486,330.924731 301.899418,310.444654 316,282.05958 L97.493242,234.924731 Z" id="Path" fill="#000000" fill-rule="nonzero" opacity="0.1"></path>
                <path d="M104,243.924731 C104,243.924731 97.25,262.744918 104,274.924731" id="Path" fill="#000000" fill-rule="nonzero" opacity="0.1"></path>
                <path d="M315.086622,330.958439 L435.16459,292.104506 C435.16459,292.104506 441.880619,293.565181 437.538359,298.531473 C433.196099,303.497765 317.402494,335.924731 317.402494,335.924731 L100,283.924731 L315.086622,330.958439 Z" id="Path" fill="#FF6366" fill-rule="nonzero"></path>
                <path d="M315.086622,330.958439 L435.16459,292.104506 C435.16459,292.104506 441.880619,293.565181 437.538359,298.531473 C433.196099,303.497765 317.402494,335.924731 317.402494,335.924731 L100,283.924731 L315.086622,330.958439 Z" id="Path" fill="#000000" fill-rule="nonzero" opacity="0.1"></path>
                <path d="M305,286.924731 C305,286.924731 293.75,300.924731 305,321.924731" id="Path" fill="#000000" fill-rule="nonzero" opacity="0.1"></path>
                <polygon id="Rectangle" fill="#000000" fill-rule="nonzero" opacity="0.1" transform="translate(335.106750, 295.628651) rotate(-18.450000) translate(-335.106750, -295.628651) " points="307.697165 295.338817 362.516334 295.338817 362.516334 295.918484 307.697165 295.918484"></polygon>
                <polygon id="Rectangle" fill="#000000" fill-rule="nonzero" opacity="0.1" transform="translate(340.320891, 297.094495) rotate(-20.820000) translate(-340.320891, -297.094495) " points="306.92334 296.804661 373.718443 296.804661 373.718443 297.384329 306.92334 297.384329"></polygon>
                <polygon id="Rectangle" fill="#000000" fill-rule="nonzero" opacity="0.1" transform="translate(345.270820, 299.796615) rotate(-22.260000) translate(-345.270820, -299.796615) " points="306.560615 299.506782 383.981026 299.506782 383.981026 300.086449 306.560615 300.086449"></polygon>
                <polygon id="Rectangle" fill="#000000" fill-rule="nonzero" opacity="0.1" transform="translate(350.914195, 300.957076) rotate(-24.310000) translate(-350.914195, -300.957076) " points="306.355143 300.667242 395.473247 300.667242 395.473247 301.24691 306.355143 301.24691"></polygon>
                <polygon id="Rectangle" fill="#000000" fill-rule="nonzero" opacity="0.1" transform="translate(355.596532, 302.143964) rotate(-23.610000) translate(-355.596532, -302.143964) " points="306.860975 301.85413 404.332089 301.85413 404.332089 302.433798 306.860975 302.433798"></polygon>
                <polygon id="Rectangle" fill="#000000" fill-rule="nonzero" opacity="0.1" transform="translate(365.828594, 302.507475) rotate(-23.360000) translate(-365.828594, -302.507475) " points="307.508232 302.217642 424.148956 302.217642 424.148956 302.797309 307.508232 302.797309"></polygon>
                <polygon id="Path" fill="#FFFFFF" fill-rule="nonzero" opacity="0.3" points="151 237.462045 252.913707 215.924731 315 227.857567 231.488666 254.924731"></polygon>
                <path d="M434.838302,238.924731 C434.838302,238.924731 440.127508,241.050691 437.023732,244.335212 C433.919956,247.619733 315,281.924731 315,281.924731 L434.838302,238.924731 Z" id="Path" fill="#FF6366" fill-rule="nonzero"></path>
                <path d="M179.560854,62.9530647 C179.560854,62.9530647 157.647707,61.6348354 160.208085,76.9815564 C160.208085,76.9815564 159.694856,79.6928489 162.157202,80.9247312 C162.157202,80.9247312 162.197568,79.7734393 164.406183,80.170635 C165.194325,80.3057855 165.99604,80.3444475 166.793562,80.2857642 C167.868626,80.2122924 168.89066,79.7920774 169.705704,79.0884206 L169.705704,79.0884206 C169.705704,79.0884206 175.870218,76.5440655 178.269131,66.4817743 C178.269131,66.4817743 180.04525,64.2885633 179.999117,63.7244302 L176.285415,65.3017001 C176.285415,65.3017001 177.548304,67.9669409 176.556446,70.1831778 C176.556446,70.1831778 176.435347,65.3995599 175.720286,65.5089327 C175.576121,65.5089327 173.800003,66.4357226 173.800003,66.4357226 C173.800003,66.4357226 175.974018,71.0811855 174.330532,74.4544707 C174.330532,74.4544707 174.953326,68.73255 173.119542,66.7695973 L170.513031,68.2893026 C170.513031,68.2893026 173.056109,73.0844334 171.33189,76.9988258 C171.33189,76.9988258 171.77592,70.9948386 169.965202,68.657716 L167.600889,70.499783 C167.600889,70.499783 169.994035,75.2258363 168.535081,78.4724794 C168.535081,78.4724794 168.344783,71.4841376 167.093427,70.9545433 C167.093427,70.9545433 165.023211,72.7735845 164.711814,73.5219243 C164.711814,73.5219243 166.349533,76.9758 165.328842,78.7660589 C165.328842,78.7660589 164.711814,74.1090831 164.175518,74.0860573 C164.175518,74.0860573 162.116836,77.1715196 161.903471,79.2668708 C162.003175,77.3134227 162.613533,75.4200819 163.673822,73.7752085 C162.487326,73.9992942 161.392665,74.565674 160.525249,75.4042865 C160.525249,75.4042865 160.842413,73.2225884 164.187051,73.0326252 C164.187051,73.0326252 165.888204,70.6897462 166.343766,70.5515912 C166.343766,70.5515912 163.016428,70.2695247 161.003878,71.1617759 C161.003878,71.1617759 162.779997,69.1067199 166.949261,70.010484 L169.255908,68.1108524 C169.255908,68.1108524 164.884812,67.5352064 163.027961,68.1741734 C163.027961,68.1741734 165.167376,66.3551322 169.884469,67.6791179 L172.427548,66.1651691 C172.427548,66.1651691 168.696546,65.3650212 166.476399,65.6528442 C166.476399,65.6528442 168.817645,64.3921795 173.171441,65.7564604 L174.982159,64.9447996 C174.982159,64.9447996 172.254549,64.4094489 171.452989,64.323102 C170.65143,64.2367551 170.611063,64.0180097 170.611063,64.0180097 C172.342282,63.7341869 174.118398,63.9333991 175.743353,64.5936556 C175.743353,64.5936556 179.63582,63.194836 179.560854,62.9530647 Z" id="Path" fill="#FF6366" fill-rule="nonzero"></path>
                <path d="M489.589094,125.953065 C489.589094,125.953065 467.644311,124.634835 470.208386,139.981556 C470.208386,139.981556 469.694416,142.692849 472.160316,143.924731 C472.160316,143.924731 472.200741,142.773439 474.412544,143.170635 C475.202167,143.302637 476.00466,143.341281 476.803371,143.285764 C477.870198,143.207419 478.883039,142.787426 479.690842,142.088421 L479.690842,142.088421 C479.690842,142.088421 485.870031,139.544066 488.266632,129.481774 C488.266632,129.481774 490.045315,127.288563 489.999115,126.72443 L486.291602,128.3017 C486.291602,128.3017 487.556314,130.966941 486.563024,133.183178 C486.563024,133.183178 486.44175,128.39956 485.731432,128.508933 C485.587059,128.508933 483.802602,129.435723 483.802602,129.435723 C483.802602,129.435723 485.979755,134.081185 484.339671,137.454471 C484.339671,137.454471 484.963365,131.73255 483.121158,129.769597 L480.510884,131.289303 C480.510884,131.289303 483.057634,136.084433 481.330926,139.998826 C481.330926,139.998826 481.775597,133.994839 479.962264,131.657716 L477.600313,133.499783 C477.600313,133.499783 479.991139,138.225836 478.530079,141.472479 C478.530079,141.472479 478.339505,134.484138 477.086343,133.954543 C477.086343,133.954543 475.018913,135.773585 474.701291,136.521924 C474.701291,136.521924 476.341375,139.9758 475.324985,141.766059 C475.324985,141.766059 474.701291,137.109083 474.169997,137.086057 C474.169997,137.086057 472.108342,140.17152 471.894669,142.266871 C471.994645,140.312597 472.608018,138.418813 473.673351,136.775208 C472.483642,136.999841 471.385696,137.566064 470.514458,138.404287 C470.514458,138.404287 470.837854,136.222588 474.181546,136.032625 C474.181546,136.032625 475.885155,133.689746 476.341375,133.545835 C476.341375,133.545835 473.015008,133.269525 470.993778,134.161776 C470.993778,134.161776 472.77246,132.10672 476.947744,133.010484 L479.257721,131.110852 C479.257721,131.110852 474.87454,130.535206 473.020783,131.174173 C473.020783,131.174173 475.157512,129.355132 479.88719,130.679118 L482.428165,129.165169 C482.428165,129.165169 478.691777,128.365021 476.468424,128.652844 C476.468424,128.652844 478.813051,127.39218 483.173133,128.75646 L484.99224,127.9448 C484.99224,127.9448 482.254917,127.409449 481.4522,127.323102 C480.649483,127.236755 480.609058,127.01801 480.609058,127.01801 C482.342681,126.730539 484.122361,126.929863 485.748757,127.593656 C485.748757,127.593656 489.658394,126.194836 489.589094,125.953065 Z" id="Path" fill="#FF6366" fill-rule="nonzero" opacity="0.1"></path>
                <path d="M217,158.379591 C217,158.379591 207.532122,139.029821 195.480017,148.566614 C195.480017,148.566614 192.878638,149.423347 193.004419,152.111911 C193.004419,152.111911 194.004949,151.598999 194.719614,153.673195 C194.986577,154.406418 195.339639,155.106333 195.7716,155.758664 C196.356571,156.642926 197.217471,157.315568 198.224329,157.675041 L198.224329,157.675041 C198.224329,157.675041 203.409936,161.721978 213.295178,158.960141 C213.295178,158.960141 216.056643,159.427962 216.508311,159.101051 L213.352351,156.694307 C213.352351,156.694307 211.637156,159.044687 209.247318,159.253233 C209.247318,159.253233 213.340917,156.869035 212.900683,156.316668 C212.809206,156.20394 211.185488,155.116114 211.185488,155.116114 C211.185488,155.116114 208.206766,159.191233 204.490509,159.39978 C204.490509,159.39978 209.750441,157.201583 210.562301,154.693384 L207.989508,153.194101 C207.989508,153.194101 205.056524,157.658132 200.831426,158.05268 C200.831426,158.05268 206.251443,155.567026 207.400624,152.906644 L204.667746,151.779364 C204.667746,151.779364 201.723328,156.074302 198.20146,156.384305 C198.20146,156.384305 204.17034,152.884098 204.021689,151.559544 C204.021689,151.559544 201.443179,150.668992 200.642755,150.753538 C200.642755,150.753538 198.458739,153.791559 196.400505,153.791559 C196.400505,153.791559 200.133913,151.035358 199.905221,150.590083 C199.905221,150.590083 196.234703,150.308262 194.30225,151.153723 C196.043591,150.300473 197.98128,149.911813 199.922373,150.026442 C199.152289,149.12117 198.130978,148.457114 196.983672,148.115702 C196.983672,148.115702 199.030471,147.349151 200.808557,150.105352 C200.808557,150.105352 203.667216,150.4379 204.004537,150.759175 C204.004537,150.759175 202.638099,147.794427 200.894317,146.503691 C200.894317,146.503691 203.535717,147.027876 204.742071,151.012813 L207.51497,152.095002 C207.51497,152.095002 205.919839,148.081883 204.450488,146.813693 C204.450488,146.813693 207.057585,147.766245 208.195331,152.450095 L210.73382,153.893015 C210.73382,153.893015 209.630378,150.325172 208.30396,148.57225 C208.30396,148.57225 210.527997,149.970078 211.448485,154.332654 L213.032182,155.493753 C213.032182,155.493753 212.174584,152.906644 211.888718,152.185185 C211.602852,151.463725 211.745785,151.317179 211.745785,151.317179 C212.833408,152.655397 213.522262,154.265344 213.735412,155.967211 C213.735412,155.967211 216.794177,158.548683 217,158.379591 Z" id="Path" fill="#FF6366" fill-rule="nonzero" opacity="0.1"></path>
                <path d="M439,98.3775115 C439,98.3775115 429.53769,79.0309721 417.479678,88.566173 C417.479678,88.566173 414.883975,89.4227631 415.00404,92.1108783 C415.00404,92.1108783 416.010304,91.6036867 416.719263,93.6719011 C416.985742,94.4080045 417.340853,95.1099386 417.776983,95.7626573 C418.359859,96.6451116 419.219063,97.3158954 420.224034,97.6730788 L420.224034,97.6730788 C420.224034,97.6730788 425.41544,101.71934 435.29512,98.9635995 C435.29512,98.9635995 438.056628,99.4257073 438.51402,99.0988506 L435.375164,96.686873 C435.375164,96.686873 433.659941,99.0424959 431.275782,99.251008 C431.275782,99.251008 435.363729,96.8615723 434.923488,96.3092971 C434.83201,96.1965879 433.208266,95.1089438 433.208266,95.1089438 C433.208266,95.1089438 430.235214,99.1833825 426.513182,99.3918946 C426.513182,99.3918946 431.778914,97.1940646 432.590786,94.6919196 L429.977931,93.2041578 C429.977931,93.2041578 427.050618,97.6618079 422.819737,98.0619256 C422.819737,98.0619256 428.239839,95.5710516 429.394755,92.9111138 L426.656117,91.7840215 C426.656117,91.7840215 423.711652,96.0838786 420.195447,96.3881936 C420.195447,96.3881936 426.158703,92.888572 426.01005,91.569874 C426.01005,91.569874 423.437217,90.6738356 422.63678,90.764003 C422.63678,90.764003 420.45273,93.7958813 418.388746,93.7958813 C418.388746,93.7958813 422.12793,91.0401406 421.899234,90.5949391 C421.899234,90.5949391 418.228658,90.313166 416.290457,91.1584853 C418.031739,90.3051274 419.969527,89.9165183 421.910669,90.031393 C421.143458,89.1256955 420.123748,88.46151 418.977639,88.1209715 C418.977639,88.1209715 421.024471,87.3545487 422.802584,90.1102894 C422.802584,90.1102894 425.661288,90.4484171 425.998615,90.7696384 C425.998615,90.7696384 424.632155,87.7997502 422.882628,86.5092295 C422.882628,86.5092295 425.52407,87.0389629 426.730443,91.045776 L429.509103,92.1277847 C429.509103,92.1277847 427.913947,88.1097006 426.444573,86.8417217 C426.444573,86.8417217 429.051711,87.7941147 430.183758,92.4771833 L432.728004,93.9198614 C432.728004,93.9198614 431.618827,90.3582497 430.292388,88.5999857 C430.292388,88.5999857 432.522177,89.9975802 433.436962,94.3594274 L435.020684,95.5203325 C435.020684,95.5203325 434.168791,92.9336557 433.877203,92.2123166 C433.585615,91.4909775 433.734268,91.350091 433.734268,91.350091 C434.818814,92.689326 435.505547,94.2986478 435.718208,95.9993467 C435.718208,95.9993467 438.82276,98.5578463 439,98.3775115 Z" id="Path" fill="#FF6366" fill-rule="nonzero" opacity="0.1"></path>
                <path d="M470,196.380957 C470,196.380957 460.544448,177.031293 448.477907,186.565257 C448.477907,186.565257 445.884058,187.421736 446.004038,190.109502 C446.004038,190.109502 447.009583,189.602376 447.718035,191.670323 C447.98247,192.406087 448.335406,193.107925 448.769287,193.760808 C449.351747,194.643147 450.210337,195.313844 451.214589,195.670981 L451.214589,195.670981 C451.214589,195.670981 456.402288,199.722352 466.280626,196.961334 C466.280626,196.961334 469.034448,197.429017 469.491514,197.096568 L466.337759,194.690538 C466.337759,194.690538 464.623762,197.045855 462.235592,197.25434 C462.235592,197.25434 466.320619,194.865215 465.880693,194.313011 C465.78928,194.200316 464.166696,193.112814 464.166696,193.112814 C464.166696,193.112814 461.195767,197.186724 457.476393,197.400843 C457.476393,197.400843 462.738365,195.197664 463.549657,192.695843 L460.972947,191.197005 C460.972947,191.197005 458.047725,195.659712 453.819865,196.054143 C453.819865,196.054143 459.236097,193.563592 460.390188,190.903999 L457.653506,189.777053 C457.653506,189.777053 454.711144,194.070718 451.197449,194.380628 C451.197449,194.380628 457.16216,190.88146 457.013614,189.557299 C457.013614,189.557299 454.436904,188.661376 453.637039,188.751532 C453.637039,188.751532 451.454549,191.783017 449.392039,191.783017 C449.392039,191.783017 453.128553,189.027634 452.90002,188.58249 C452.90002,188.58249 449.232066,188.300754 447.295249,189.145963 C449.037516,188.293249 450.97561,187.904746 452.91716,188.019017 C452.149415,187.112024 451.128162,186.44774 449.980511,186.108844 C449.980511,186.108844 452.025881,185.336886 453.802725,188.097903 C453.802725,188.097903 456.659388,188.430353 456.996474,188.751532 C456.996474,188.751532 455.630989,185.787664 453.888425,184.491676 C453.888425,184.491676 456.527981,185.021341 457.733493,189.027634 L460.504455,190.109502 C460.504455,190.109502 458.910437,186.091939 457.442113,184.82976 C457.442113,184.82976 460.047389,185.776394 461.178627,190.46449 L463.721056,191.901346 C463.721056,191.901346 462.612672,188.340197 461.28718,186.582161 C461.28718,186.582161 463.515377,187.979574 464.435222,192.34649 L466.017813,193.473436 C466.017813,193.473436 465.160814,190.887095 464.875148,190.16585 C464.589482,189.444604 464.732315,189.303736 464.732315,189.303736 C465.818694,190.641268 466.505261,192.251141 466.714838,193.952388 C466.714838,193.952388 469.822887,196.549999 470,196.380957 Z" id="Path" fill="#FF6366" fill-rule="nonzero" opacity="0.1"></path>
                <ellipse id="Oval" fill="#FF6366" fill-rule="nonzero" opacity="0.1" cx="117.5" cy="454.424731" rx="13.5" ry="1.5"></ellipse>
                <ellipse id="Oval" fill="#FF6366" fill-rule="nonzero" opacity="0.1" cx="29.5" cy="428.424731" rx="13.5" ry="1.5"></ellipse>
                <ellipse id="Oval" fill="#FF6366" fill-rule="nonzero" opacity="0.1" cx="183.5" cy="470.424731" rx="13.5" ry="1.5"></ellipse>
                <ellipse id="Oval" fill="#FF6366" fill-rule="nonzero" opacity="0.1" cx="524.5" cy="434.424731" rx="13.5" ry="1.5"></ellipse>
                <ellipse id="Oval" fill="#FF6366" fill-rule="nonzero" opacity="0.1" cx="414.5" cy="427.424731" rx="13.5" ry="1.5"></ellipse>
                <ellipse id="Oval" fill="#FF6366" fill-rule="nonzero" opacity="0.1" cx="342" cy="461.424731" rx="16" ry="2.5"></ellipse>
                <path d="M348.891201,433.924731 C348.891201,433.924731 326.896296,445.097723 338.25975,458.258548 C338.25975,458.258548 339.328704,461.11463 342.419378,460.914704 C342.419378,460.914704 341.803567,459.806545 344.162239,458.921159 C345.001504,458.602177 345.799153,458.186068 346.538339,457.68162 C347.537187,457.002672 348.283671,456.022037 348.664629,454.888372 L348.664629,454.888372 C348.664629,454.888372 353.161211,448.97057 349.675489,438.020353 C349.675489,438.020353 350.128633,434.92436 349.733584,434.421689 L347.061197,438.026065 C347.061197,438.026065 349.820727,439.848245 350.140252,442.52725 C350.140252,442.52725 347.235483,438.031777 346.65453,438.528735 C346.52672,438.631554 345.329955,440.499432 345.329955,440.499432 C345.329955,440.499432 350.117014,443.692531 350.471395,447.839562 C350.471395,447.839562 347.77577,442.030291 344.865193,441.202028 L343.197856,444.126655 C343.197856,444.126655 348.426438,447.256921 349.007392,451.963744 C349.007392,451.963744 345.969005,445.994533 342.866712,444.789266 L341.6409,447.879547 C341.6409,447.879547 346.683577,451.032661 347.14834,454.951206 C347.14834,454.951206 342.930617,448.399354 341.414328,448.604992 C341.414328,448.604992 340.461564,451.506771 340.589374,452.403581 C340.589374,452.403581 344.15062,454.745568 344.214524,457.04757 C344.214524,457.04757 340.926327,452.963373 340.420897,453.231844 C340.420897,453.231844 340.211754,457.33889 341.222613,459.475239 C341.222613,459.475239 339.479752,456.424944 339.76442,453.231844 C338.745558,454.117738 338.012504,455.27732 337.655558,456.567748 C337.655558,456.567748 336.708603,454.311443 339.828324,452.232216 C339.828324,452.232216 340.124611,449.039116 340.484802,448.644977 C340.484802,448.644977 337.109461,450.267231 335.674506,452.255064 C335.674506,452.255064 336.203174,449.290451 340.781088,447.816713 L341.942996,444.686447 C341.942996,444.686447 337.365081,446.59431 335.953364,448.273686 C335.953364,448.273686 336.970032,445.331922 342.303187,443.921018 L343.883381,441.064936 C343.883381,441.064936 339.816705,442.413006 337.829844,443.921018 C337.829844,443.921018 339.369371,441.390529 344.371382,440.225248 L345.65529,438.425916 C345.65529,438.425916 342.704045,439.459818 341.879091,439.831108 C341.054137,440.202399 340.89147,440.01961 340.89147,440.01961 C342.399407,438.765489 344.231395,437.946904 346.183957,437.654774 C346.183957,437.654774 349.094535,434.118945 348.891201,433.924731 Z" id="Path" fill="#FF6366" fill-rule="nonzero"></path>
                <path d="M414.526049,219.679468 C410.736587,209.376122 389.877163,208.407828 380.82649,211.034399 C374.394835,212.907207 360.836209,215.017741 353.593353,216.078805 L353.124016,215.632346 C354.06269,215.354034 354.085868,214.66985 353.969982,213.655171 C353.902527,212.317881 353.921882,210.977619 354.027925,209.642838 C358.466347,211.022802 362.418049,207.758433 362.418049,207.758433 L362.418049,207.758433 C367.632905,205.439166 366.230688,195.512701 367.227305,192.799158 C367.974767,190.769799 368.780173,178.813975 369.139419,172.853458 L369.214744,172.853458 L369.255304,170.85309 C369.307453,169.989163 369.33063,169.484722 369.33063,169.484722 C369.33063,169.484722 369.840527,154.908126 370.837144,151.956858 C371.764229,149.243315 372.517486,135.571233 372.633372,133.402718 C372.633372,133.217177 372.633372,133.118608 372.633372,133.118608 L372.558046,131.854607 C372.610195,130.932698 372.633372,129.906422 372.627578,128.827963 C372.627578,123.870529 372.111887,117.625901 372.048149,116.61702 C372.048149,116.472065 372.048149,116.29812 372.048149,116.089386 C372.088709,113.973055 371.822172,103.374002 362.81206,99.3674678 C359.491935,97.8831367 355.499673,96.1146952 351.634885,94.3926391 C350.638268,85.7823586 348.361115,77.2184634 348.55812,68.5444031 C348.55812,67.2398151 348.674006,65.9352272 348.80148,64.6364374 C348.80148,65.0133183 348.76092,65.3959975 348.755126,65.7960711 C348.755126,66.6368056 348.755126,67.4833382 348.755126,68.3240727 C349.096989,57.475699 353.193548,46.5693437 352.811125,35.9528968 C352.776359,36.990769 352.701034,38.0344394 352.602531,39.0781098 C352.802582,35.4872014 352.426998,31.8873961 351.490028,28.4152775 C351.142371,27.1918639 350.673034,25.9278632 349.670623,25.1103214 C348.723115,24.4518971 347.636463,24.0213104 346.495355,23.8521188 C343.753513,23.1498269 340.968046,22.6307125 338.15738,22.2982096 C337.730278,20.9899906 337.096462,19.7587014 336.280032,18.6511615 C330.404627,10.5801106 321.701612,2.99610598 311.410963,1.25665537 C306.248255,0.386930071 300.309114,1.11170116 296.797777,4.80513462 C296.431084,5.12959368 296.086519,5.47826405 295.766395,5.84880498 C293.877458,8.1042926 293.066258,11.0671568 291.130967,13.3168463 C291.003493,13.4675986 290.858636,13.6067547 290.719573,13.7517089 C286.930111,17.1436376 281.025735,17.8510142 276.81329,20.8950527 C276.071039,21.4415063 275.37528,22.0485223 274.733142,22.7098795 C273.035779,24.3930418 271.513722,26.2444355 270.190423,28.2355343 C268.295692,30.9026919 266.348813,33.6800147 265.746207,36.8632093 C264.535202,43.2411949 268.875121,49.2886848 269.680526,55.7072576 C271.476754,70.0693214 255.594621,82.8136962 258.601854,96.9844205 C259.404294,100.465742 261.176281,103.648209 263.712413,106.162922 C257.518323,111.775549 252.245524,117.220029 252.245524,117.220029 L252.245524,117.544727 L251.26629,117.544727 L251.364793,118.70436 L251.26629,118.70436 L251.805159,124.995373 L251.26629,134.15648 C251.26629,134.15648 251.26629,134.255049 251.26629,134.44059 L251.26629,134.486976 L251.26629,134.736297 C251.26629,134.736297 251.26629,134.834866 251.26629,135.020407 L251.301056,135.020407 C251.480679,138.377547 252.193376,150.449334 253.039341,152.99473 C254.035958,155.945998 254.540061,170.522594 254.540061,170.522594 C254.540061,170.522594 255.640975,191.123487 256.649181,193.848627 C257.657386,196.573766 256.226198,206.47124 261.458437,208.807902 L261.458437,208.807902 C262.989104,209.982814 264.801422,210.734621 266.713853,210.988013 C266.447315,213.156528 266.61535,214.727832 267.478698,215.220677 C267.848234,215.438064 268.266972,215.557783 268.695498,215.568567 C268.340508,216.095411 268.024829,216.647735 267.751029,217.221045 C265.674256,217.004075 263.633639,216.522806 261.678619,215.788897 C256.058163,213.46963 237.406362,208.251278 231.988706,211.921519 C226.57105,215.591759 213.53391,218.919908 219.554172,233.693642 C225.574433,248.467376 228.378867,248.838459 228.378867,248.838459 C230.231972,250.184603 231.857588,251.81914 233.193917,253.679929 C235.001734,256.399271 251.845719,262.620706 256.058163,262.620706 C257.848626,262.593104 259.638985,262.682198 261.417877,262.887421 C261.417877,262.887421 256.846186,266.899754 257.454586,269.230618 C258.062986,271.561482 256.063958,290.219989 256.063958,290.219989 C256.063958,290.219989 260.699385,294.893313 262.681031,288.764648 L262.750562,288.857419 C263.121396,289.36186 265.126219,291.64054 268.898298,288.764648 C270.44207,287.592651 272.081869,286.553027 273.800262,285.65683 L292.063847,283.070847 C293.967959,282.951754 295.877198,282.938204 297.782806,283.030259 C300.679948,283.267984 303.524942,281.551726 305.315376,280.223946 C309.099043,281.661892 313.352048,283.233195 315.374253,283.807214 C319.476607,284.966848 338.331208,290.028649 342.740659,288.445749 C343.657235,288.081058 344.472228,287.500235 345.116315,286.752684 L349.322966,286.886042 L347.352909,287.280317 C347.352909,287.280317 351.188725,287.344097 356.403581,287.413675 L356.183399,287.541235 L362.725146,287.483253 C372.297304,287.570225 383.051496,287.599216 384.465301,287.280317 C386.678718,286.787473 398.180372,287.135363 401.570029,287.280317 L402.514497,287.280317 C402.514497,287.280317 415.151831,284.758114 409.936975,271.926766 C405.927331,262.06988 393.602888,259.205584 388.133083,258.417033 C389.674363,258.10973 391.001254,257.872005 391.881985,257.732849 C395.700418,257.153033 403.117103,253.674131 403.719708,252.485507 C404.322314,251.296882 410.539581,247.846972 412.144598,245.881393 C413.749614,243.915813 418.332893,229.982814 414.526049,219.679468 Z M309.8523,248.513761 L309.232312,248.716697 L308.815123,248.855853 L308.015512,249.644404 C307.378141,249.21534 306.694415,248.763082 305.981718,248.299229 C307.239078,248.374605 308.531203,248.449981 309.8523,248.513761 Z" id="Shape" fill="url(#linearGradient-1)" fill-rule="nonzero"></path>
                <path d="M347,187.784923 C347,187.784923 355.956098,211.091561 361.04878,208.760898 C366.141463,206.430234 364.76,196.524913 365.731707,193.809689 C366.703415,191.094466 367.780488,170.503051 367.780488,170.503051 C367.780488,170.503051 368.272195,155.936402 369.243902,152.988113 C370.145366,150.278716 370.877073,136.615199 371,134.465162 C371,134.278709 371,134.179656 371,134.179656 L370.034146,117.282343 L364.566829,115.924731 L351.887805,120.586059 L350.131707,130.567127 L349.446829,134.465162 L349.154146,136.12576 L347,187.784923 Z" id="Path" fill="#BE6F72" fill-rule="nonzero"></path>
                <path d="M350,182.924731 C350,182.924731 358.390805,190.083482 360.91954,190.712493 C363.448276,191.341505 365,196.924731 365,196.924731" id="Path" fill="#000000" fill-rule="nonzero" opacity="0.1"></path>
                <path d="M277,188.784923 C277,188.784923 268.043902,212.091561 262.95122,209.760898 C257.858537,207.430234 259.24,197.524913 258.268293,194.809689 C257.296585,192.094466 256.219512,171.503051 256.219512,171.503051 C256.219512,171.503051 255.727805,156.936402 254.756098,153.988113 C253.854634,151.278716 253.122927,137.615199 253,135.465162 C253,135.278709 253,135.179656 253,135.179656 L253.971707,118.282343 L259.439024,116.924731 L272.118049,121.586059 L273.874146,131.567127 L274.559024,135.465162 L274.851707,137.12576 L277,188.784923 Z" id="Path" fill="#BE6F72" fill-rule="nonzero"></path>
                <rect id="Rectangle" fill="#3E373A" fill-rule="nonzero" x="315" y="63.9247312" width="20" height="31"></rect>
                <rect id="Rectangle" fill="#000000" fill-rule="nonzero" opacity="0.1" x="315" y="63.9247312" width="20" height="31"></rect>
                <path d="M273.836795,211.748733 C273.836795,211.748733 267.038902,219.102694 269.561171,220.438214 C272.08344,221.773735 288.399547,246.804716 288.399547,246.804716 C288.399547,246.804716 341.990473,253.2989 352.097022,243.554758 C362.203572,233.810616 362,216.402993 362,216.402993 C362,216.402993 353.879503,218.122548 352.994088,217.188257 C352.108672,216.253965 347.244713,211.748733 347.244713,211.748733 C347.244713,211.748733 278.496875,207.644729 273.836795,211.748733 Z" id="Path" fill="#4B4B5B" fill-rule="nonzero"></path>
                <path d="M273.836795,211.748733 C273.836795,211.748733 267.038902,219.102694 269.561171,220.438214 C272.08344,221.773735 288.399547,246.804716 288.399547,246.804716 C288.399547,246.804716 341.990473,253.2989 352.097022,243.554758 C362.203572,233.810616 362,216.402993 362,216.402993 C362,216.402993 353.879503,218.122548 352.994088,217.188257 C352.108672,216.253965 347.244713,211.748733 347.244713,211.748733 C347.244713,211.748733 278.496875,207.644729 273.836795,211.748733 Z" id="Path" fill="#000000" fill-rule="nonzero" opacity="0.02"></path>
                <path d="M369.983891,117.153179 L352.646151,131.033084 L347.404374,131.414782 L345.479885,131.553581 L313.156559,133.924731 L279.636928,131.472615 L274.649439,131.108267 L268.292267,130.645604 L255,117.922357 C255,117.922357 264.408614,107.836293 272.649819,101.029356 C275.897756,98.340124 278.966536,96.1656055 281.203104,95.309678 L281.584534,95.1766623 C282.991307,94.6276703 284.247274,93.7514461 285.248577,92.6204464 C291.756009,85.9060422 297.772204,69.3369052 297.772204,69.3369052 C297.772204,69.3369052 326.477722,54.4969732 323.010174,73.9635403 C319.542626,93.4301075 335.915232,88.618407 335.915232,88.618407 L341.313048,91.0820902 L343.44559,92.0594669 L348.883862,94.5520665 L361.153202,100.184995 C370.781427,104.620781 369.983891,117.153179 369.983891,117.153179 Z" id="Path" fill="#BE6F72" fill-rule="nonzero"></path>
                <circle id="Oval" fill="#000000" fill-rule="nonzero" opacity="0.1" cx="312" cy="59.9247312" r="26"></circle>
                <path d="M370.440456,135.924731 L254,135.924731 C254,135.736981 254,135.637238 254,135.637238 L254.963133,118.622356 C254.963133,118.622356 264.408799,108.389957 272.682459,101.484262 L345.787733,98.5506613 L349.187709,94.9247312 L361.505367,100.639385 C371.177311,105.133661 370.399842,117.847885 370.399842,117.847885 C370.399842,117.847885 371.7227,132.580427 370.440456,135.924731 Z" id="Path" fill="#000000" fill-rule="nonzero" opacity="0.1"></path>
                <path d="M370.440456,135.924731 L254,135.924731 C254,135.736981 254,135.637238 254,135.637238 L254.963133,118.622356 C254.963133,118.622356 264.408799,108.389957 272.682459,101.484262 L345.787733,98.5506613 L349.187709,94.9247312 L361.505367,100.639385 C371.177311,105.133661 370.399842,117.847885 370.399842,117.847885 C370.399842,117.847885 371.7227,132.580427 370.440456,135.924731 Z" id="Path" fill="#E7C7CA" fill-rule="nonzero"></path>
                <path d="M292.28626,87.9835059 C292.28626,87.9835059 310.740898,111.33998 335.321823,87.5029438 C359.902748,63.665908 338.04397,140.671635 338.04397,140.671635 L285,146.924731 L292.28626,87.9835059 Z" id="Path" fill="#000000" fill-rule="nonzero" opacity="0.1"></path>
                <path d="M292.28626,88.9835059 C292.28626,88.9835059 310.740898,112.33998 335.321823,88.5029438 C359.902748,64.665908 338.04397,141.671635 338.04397,141.671635 L285,147.924731 L292.28626,88.9835059 Z" id="Path" fill="#E7C7CA" fill-rule="nonzero"></path>
                <path d="M342.624855,93.8824019 L344.561103,123.535369 L346.636067,133.402279 L348.219744,140.947563 C348.219744,140.947563 352.265636,198.98821 351.109667,201.890243 C349.953698,204.792275 351.687651,207.113901 351.930405,208.657782 C352.173158,210.201663 351.687651,214.078778 351.878386,215.819998 C352.069121,217.561217 351.878386,218.333158 347.451025,217.712123 C343.023664,217.091088 336.85079,216.011532 336.85079,216.011532 C336.85079,216.011532 321.245209,217.172345 315.852614,215.239591 C310.460019,213.306838 300.247033,213.301034 300.247033,213.301034 C300.247033,213.301034 284.832187,213.689906 279.826842,213.1095 C274.821496,212.529093 272.116529,219.302437 268.845137,217.363879 C265.573744,215.425322 272.694513,196.666584 275.006451,191.245588 C277.318389,185.824591 271.925794,172.092174 271.925794,172.092174 L278.861607,133.454515 L280.404826,124.696182 L280.404826,97.1616984 L280.786296,97.028205 C282.193214,96.4772413 283.449311,95.5978701 284.450717,94.4628083 L286.184671,122.171413 L340.515211,124.109971 L340.515211,92.9247312" id="Path" fill="#000000" fill-rule="nonzero" opacity="0.1"></path>
                <path d="M342.624855,91.8824019 L344.561103,121.535369 L346.636067,131.402279 L348.219744,138.947563 C348.219744,138.947563 352.265636,196.98821 351.109667,199.890243 C349.953698,202.792275 351.687651,205.113901 351.930405,206.657782 C352.173158,208.201663 351.687651,212.078778 351.878386,213.819998 C352.069121,215.561217 351.878386,216.333158 347.451025,215.712123 C343.023664,215.091088 336.85079,214.011532 336.85079,214.011532 C336.85079,214.011532 321.245209,215.172345 315.852614,213.239591 C310.460019,211.306838 300.247033,211.301034 300.247033,211.301034 C300.247033,211.301034 284.832187,211.689906 279.826842,211.1095 C274.821496,210.529093 272.116529,217.302437 268.845137,215.363879 C265.573744,213.425322 272.694513,194.666584 275.006451,189.245588 C277.318389,183.824591 271.925794,170.092174 271.925794,170.092174 L278.861607,131.454515 L280.404826,122.696182 L280.404826,95.1616984 L280.786296,95.028205 C282.193214,94.4772413 283.449311,93.5978701 284.450717,92.4628083 L286.184671,120.171413 L340.515211,122.109971 L340.515211,90.9247312" id="Path" fill="#E7C7CA" fill-rule="nonzero"></path>
                <path d="M348.89164,30.3130129 C348.562433,29.0982247 348.106162,27.8369375 347.158968,27.0232037 C346.254491,26.3696048 345.209803,25.9395086 344.109466,25.7677289 C341.475101,25.07059 338.796792,24.5540403 336.092971,24.2216348 C335.706717,22.9309994 335.122082,21.7091702 334.360299,20.6005198 C328.700238,12.5561808 320.325657,4.97102008 310.47253,3.2563669 C305.314943,2.35544743 299.337225,3.16336876 296.033598,7.25528686 C294.220068,9.50467935 293.440365,12.4864322 291.609509,14.695138 C288.080634,18.9846771 281.710177,19.513604 277.262986,22.8324751 C274.889226,24.5761902 273.168105,27.1045771 271.487413,29.557403 C269.668108,32.2136624 267.796822,34.980357 267.219265,38.1539185 C266.06415,44.4952291 270.228338,50.5401081 270.996489,56.9395425 C272.729161,71.2554435 257.481649,83.9555018 260.36366,98.0795941 C262.044352,106.315742 269.604576,112.116501 277.424702,115.057567 C280.17965,116.097984 283.327337,117.132588 284.61529,119.79466 C285.192847,120.957136 285.291032,122.299797 285.833936,123.473898 C287.659017,127.391445 293.659837,127.542567 296.882607,124.688687 C300.105377,121.834806 301.121877,117.219774 301.503065,112.912797 C303.050919,94.1039237 295.565776,75.5217331 296.437888,56.6663605 C296.697789,50.9644121 298.291847,44.4952291 303.368575,41.9145307 C310.201078,38.4271005 318.419718,44.2394842 325.939514,43.1293189 C329.497979,51.8428848 330.253402,61.4596881 328.099578,70.627706 C326.904034,75.6437932 324.836379,80.5087583 324.686215,85.6817798 C324.460967,93.5575596 328.682911,100.753291 332.333073,107.716526 C333.116297,109.018638 333.640071,110.46178 333.875151,111.965379 C333.932606,113.490961 333.650422,115.010172 333.049244,116.411852 C330.987364,121.997553 327.429612,127.182199 327.025322,133.128268 C326.906848,133.822368 327.062267,134.535594 327.458489,135.116103 C327.865415,135.503542 328.390544,135.741151 328.948587,135.790339 C335.186206,136.86563 340.580591,131.303179 343.624318,125.717479 C347.01782,119.548121 348.995257,112.692211 349.411442,105.65313 C350.040979,93.8191169 345.824811,82.1769124 346.084712,70.3312745 C346.385042,56.8639815 352.432066,43.3036904 348.89164,30.3130129 Z" id="Path" fill="#000000" fill-rule="nonzero" opacity="0.1"></path>
                <path d="M349.89164,30.3130129 C349.562433,29.0982247 349.106162,27.8369375 348.158968,27.0232037 C347.254491,26.3696048 346.209803,25.9395086 345.109466,25.7677289 C342.475101,25.07059 339.796792,24.5540403 337.092971,24.2216348 C336.706717,22.9309994 336.122082,21.7091702 335.360299,20.6005198 C329.700238,12.5561808 321.325657,4.97102008 311.47253,3.2563669 C306.314943,2.35544743 300.337225,3.16336876 297.033598,7.25528686 C295.220068,9.50467935 294.440365,12.4864322 292.609509,14.695138 C289.080634,18.9846771 282.710177,19.513604 278.262986,22.8324751 C275.889226,24.5761902 274.168105,27.1045771 272.487413,29.557403 C270.668108,32.2136624 268.796822,34.980357 268.219265,38.1539185 C267.06415,44.4952291 271.228338,50.5401081 271.996489,56.9395425 C273.729161,71.2554435 258.481649,83.9555018 261.36366,98.0795941 C263.044352,106.315742 270.604576,112.116501 278.424702,115.057567 C281.17965,116.097984 284.327337,117.132588 285.61529,119.79466 C286.192847,120.957136 286.291032,122.299797 286.833936,123.473898 C288.659017,127.391445 294.659837,127.542567 297.882607,124.688687 C301.105377,121.834806 302.121877,117.219774 302.503065,112.912797 C304.050919,94.1039237 296.565776,75.5217331 297.437888,56.6663605 C297.697789,50.9644121 299.291847,44.4952291 304.368575,41.9145307 C311.201078,38.4271005 319.419718,44.2394842 326.939514,43.1293189 C330.497979,51.8428848 331.253402,61.4596881 329.099578,70.627706 C327.904034,75.6437932 325.836379,80.5087583 325.686215,85.6817798 C325.460967,93.5575596 329.682911,100.753291 333.333073,107.716526 C334.116297,109.018638 334.640071,110.46178 334.875151,111.965379 C334.932606,113.490961 334.650422,115.010172 334.049244,116.411852 C331.987364,121.997553 328.429612,127.182199 328.025322,133.128268 C327.906848,133.822368 328.062267,134.535594 328.458489,135.116103 C328.865415,135.503542 329.390544,135.741151 329.948587,135.790339 C336.186206,136.86563 341.580591,131.303179 344.624318,125.717479 C348.01782,119.548121 349.995257,112.692211 350.411442,105.65313 C351.040979,93.8191169 346.824811,82.1769124 347.084712,70.3312745 C347.385042,56.8639815 353.432066,43.3036904 349.89164,30.3130129 Z" id="Path" fill="#3E373A" fill-rule="nonzero"></path>
                <polygon id="Path" fill="#C3C7D9" fill-rule="nonzero" points="337 286.190877 360 286.924731 356.701034 269.924731 339.081422 271.594684"></polygon>
                <path d="M408.247149,245.782984 C406.693686,247.70936 400.68347,251.180308 400.101649,252.33729 C399.519827,253.494273 392.345969,256.965221 388.657221,257.543712 C384.968473,258.122203 373.337862,260.632856 371.202577,261.98074 C369.672387,262.952606 357.390136,266.030179 349.320272,267.736729 C347.134482,268.250883 344.92225,268.646767 342.693326,268.922636 C339.202397,269.113538 301,256.195827 301,256.195827 L308.36586,248.67544 L308.773135,248.536602 C310.856055,247.836628 320.479382,244.602861 325.820503,243.064075 C331.836537,241.328601 338.818395,234.195803 338.818395,234.195803 C338.818395,234.195803 349.093362,230.724855 350.454824,230.337266 C351.816286,229.949677 346.963895,216.841064 346.963895,216.841064 C346.963895,216.841064 369.265112,213.76349 377.992434,211.154494 C386.719755,208.545498 406.891505,209.511579 410.574435,219.73352 C414.257365,229.955462 409.823886,243.856608 408.247149,245.782984 Z" id="Path" fill="#4B4B5B" fill-rule="nonzero"></path>
                <path d="M307,278.663786 C307,278.663786 302.566501,283.359864 298.127215,282.972437 C293.687928,282.585011 278.164895,284.146457 278.164895,284.146457 C275.3518,285.284504 272.717564,286.832923 270.3455,288.742743 C266.716513,291.642571 264.789157,289.329753 264.430309,288.836664 L264.366643,288.742743 C262.433499,294.912215 258,290.210267 258,290.210267 C258,290.210267 259.927356,271.425955 259.336995,269.077916 C258.746634,266.729877 263.151193,262.69712 263.151193,262.69712 L268.360265,261.352868 L281.556579,257.924731 L300.465509,264.575552 L307,278.663786 Z" id="Path" fill="#E7C7CA" fill-rule="nonzero"></path>
                <path d="M268,261.924731 L264.220605,288.894428 L264.159015,288.802264 C262.288914,294.856333 258,290.242337 258,290.242337 C258,290.242337 259.864502,271.809396 259.293393,269.505278 C258.722284,267.201161 262.983203,263.243839 262.983203,263.243839 L268,261.924731 Z" id="Path" fill="#000000" fill-rule="nonzero" opacity="0.1"></path>
                <path d="M296,183.924731 C296,183.924731 306.167879,188.424731 315,183.924731" id="Path" fill="#000000" fill-rule="nonzero" opacity="0.1"></path>
                <path d="M331,190.924731 C331,190.924731 335.510769,193.174731 339,190.924731" id="Path" fill="#000000" fill-rule="nonzero" opacity="0.1"></path>
                <path d="M331,195.72903 C331,195.72903 338.564417,196.518967 340,194.924731" id="Path" fill="#000000" fill-rule="nonzero" opacity="0.1"></path>
                <path d="M328,206.924731 C328,206.924731 341.618817,205.210445 345,202.924731" id="Path" fill="#000000" fill-rule="nonzero" opacity="0.1"></path>
                <path d="M288,202.924731 C288,202.924731 295.454786,207.10684 301,206.918559" id="Path" fill="#000000" fill-rule="nonzero" opacity="0.1"></path>
                <path d="M349.950539,267.759345 C347.781474,268.263711 345.586169,268.652059 343.3743,268.922676 C339.910083,269.109944 302,256.438147 302,256.438147 L309.309498,249.060926 L309.713657,248.924731 C310.868396,249.724876 311.815282,250.411525 312.490804,250.933605 C315.67211,253.396462 318.743716,250.178859 319.898455,250.178859 C321.053194,250.178859 331.059008,258.310827 331.059008,258.310827 C331.059008,258.310827 340.29692,260.393473 341.838497,262.283177 C343.380073,264.17288 348.766931,263.798344 349.725364,265.120569 C350.014049,265.529154 350.048691,266.533591 349.950539,267.759345 Z" id="Path" fill="#000000" fill-rule="nonzero" opacity="0.1"></path>
                <path d="M278.715236,217.812494 C278.715236,217.812494 269.360055,218.353767 263.965504,216.066452 C258.570953,213.779137 240.646937,208.500269 235.44319,212.207699 C230.239443,215.915128 217.709977,219.191868 223.491918,233.940105 C229.273859,248.688342 231.974025,249.072472 231.974025,249.072472 C233.762982,250.42291 235.324741,252.05394 236.599578,253.903189 C238.33416,256.621195 254.523595,262.825465 258.570953,262.825465 C262.618312,262.825465 269.747445,262.825465 279.767549,269.809634 C289.787652,276.793803 298.847954,277.573702 298.847954,277.573702 C298.847954,277.573702 311.568224,282.811829 315.528853,283.975857 C319.489483,285.139885 337.586958,290.180128 341.830903,288.63197 C346.074847,287.083813 348.769232,277.375817 348.769232,277.375817 C348.769232,277.375817 350.694618,268.645606 349.729034,267.289513 C348.76345,265.93342 343.368899,266.317549 341.830903,264.379443 C340.292906,262.441336 331.036019,260.305344 331.036019,260.305344 C331.036019,260.305344 321.039043,251.959262 319.882655,251.959262 C318.726267,251.959262 315.650274,255.253461 312.464425,252.73334 C306.118216,248.001813 299.450762,243.723253 292.510947,239.92903 C285.191009,236.046996 278.715236,217.812494 278.715236,217.812494 Z" id="Path" fill="#4B4B5B" fill-rule="nonzero"></path>
                <path d="M259,224.143261 C262.41435,223.46914 265.958604,224.374035 268.582927,226.58991 C273.260378,230.358766 289,237.924731 289,237.924731" id="Path" fill="#000000" fill-rule="nonzero" opacity="0.1"></path>
                <path d="M376,223.924731 C376,223.924731 354.933381,226.894095 351,230.924731" id="Path" fill="#000000" fill-rule="nonzero" opacity="0.1"></path>
                <path d="M398.706351,287.669225 L397.803668,287.669225 C394.560908,287.554247 383.573471,287.209313 381.457627,287.669225 C378.968061,288.244114 346,287.669225 346,287.669225 L352.445273,286.329731 C352.445273,286.329731 350.05345,277.947837 351.571338,277.25222 C351.571338,277.25222 342.946976,271.572308 349.449745,267.737793 C355.952514,263.903277 362.961245,265.518718 362.961245,265.518718 L379.284288,259.988277 L382.417806,258.924731 C382.417806,258.924731 400.816445,259.884797 405.795577,272.532374 C410.774709,285.179951 398.706351,287.669225 398.706351,287.669225 Z" id="Path" fill="#E7C7CA" fill-rule="nonzero"></path>
                <path d="M399.621281,286.924731 L398.709339,286.924731 C404.117098,282.465872 416.349904,268.891898 380,258.998805 L383.16566,257.924731 C383.16566,257.924731 401.753019,258.894301 406.783223,271.667074 C411.813427,284.439846 399.621281,286.924731 399.621281,286.924731 Z" id="Path" fill="#000000" fill-rule="nonzero" opacity="0.1"></path>
                <circle id="Oval" fill="#4B4B5B" fill-rule="nonzero" cx="365" cy="270.924731" r="1"></circle>
                <circle id="Oval" fill="#4B4B5B" fill-rule="nonzero" cx="359" cy="272.924731" r="1"></circle>
                <g id="Group" opacity="0.1" transform="translate(261.000000, 36.924731)" fill="#000000" fill-rule="nonzero">
                    <path d="M69.646879,21.7858235 C69.8716699,15.3804162 68.7375643,9.00024975 66.3198726,3.069 C58.7848408,4.19876471 50.5310828,-1.64223529 43.6684076,1.85188235 C38.5909554,4.43752941 36.9970064,10.9191176 36.7129936,16.632 C36.6434395,18.1402941 36.6318471,19.6485882 36.660828,21.1568824 C36.660828,20.6211176 36.660828,20.0795294 36.7129936,19.5437647 C36.9796178,13.8308824 38.5735669,7.34929412 43.6684076,4.76364706 C50.5310828,1.26952941 58.7732484,7.09305882 66.3198726,5.98076471 C68.3673984,11.0047517 69.4945086,16.3591275 69.646879,21.7858235 Z" id="Path"></path>
                    <path d="M11.2561783,20.7201176 C11.3554526,19.451178 11.3302142,18.1755029 11.180828,16.9115294 C10.5664331,11.7868235 7.77847134,6.88923529 7.27420382,1.89264706 C6.62503185,7.92 10.4447134,13.7085882 11.180828,19.8232941 C11.2561783,20.1377647 11.2561783,20.4172941 11.2561783,20.7201176 Z" id="Path"></path>
                    <path d="M41.796242,72.9804706 C41.436879,77.3015294 40.4225478,81.9195882 37.1592994,84.7847647 C33.896051,87.6499412 27.885414,87.4927059 26.0712102,83.5676471 C25.4915924,82.4029412 25.4046497,81.0460588 24.8424204,79.8813529 C23.5556688,77.2141765 20.3909554,76.1775882 17.6261783,75.1351765 C9.77235669,72.1826471 2.19675159,66.3998824 0.510063694,58.1246471 C0.359387904,57.3749746 0.256777664,56.6163551 0.202866242,55.8534706 C0.060325627,57.587015 0.163759271,59.3321157 0.510063694,61.0364118 C2.19675159,69.2883529 9.78394904,75.0944118 17.6261783,78.0469412 C20.3909554,79.0893529 23.5556688,80.1259412 24.8424204,82.7931176 C25.4220382,83.9578235 25.5205732,85.3030588 26.0712102,86.4794118 C27.8970064,90.4044706 33.9192357,90.5558824 37.1592994,87.6965294 C40.3993631,84.8371765 41.4078981,80.2132941 41.796242,75.8922353 C41.9727119,73.6178939 42.0326849,71.3359408 41.9759236,69.0554118 C41.9759236,70.3773529 41.9005732,71.6818235 41.796242,72.9804706 Z" id="Path"></path>
                    <path d="M86.5659236,30.3231176 C86.5659236,31.1675294 86.5659236,32.0061176 86.5659236,32.8447059 C86.8905096,22.0129412 90.8435032,11.1229412 90.4551592,0.518294118 C90.153758,10.3251176 86.7861783,20.3532353 86.5659236,30.3231176 Z" id="Path"></path>
                    <path d="M74.1273248,74.1393529 C74.2698938,73.4483676 74.3147729,72.7406357 74.2606369,72.0370588 C74.0271865,70.5299361 73.5013739,69.0835587 72.7130573,67.7800588 C69.3628662,61.3741765 65.5431847,54.8168824 65.0910828,47.7063529 C65.0910828,48.0091765 65.0505096,48.2887059 65.0447134,48.6148235 C64.8128662,56.4998824 69.0498726,63.7152353 72.7130573,70.6918235 C73.3356269,71.7723742 73.8112817,72.9318675 74.1273248,74.1393529 L74.1273248,74.1393529 Z" id="Path"></path>
                    <path d="M89.8987261,65.7127059 C89.4660346,72.7680364 87.467784,79.6367295 84.0503822,85.8155294 C80.99,91.4119412 75.5821656,96.9850588 69.3164968,95.9077059 C68.7551386,95.8590991 68.2273296,95.6186144 67.8210828,95.2263529 C67.703363,95.0929751 67.6110245,94.9390095 67.5486624,94.7721176 C67.4791083,95.2263529 67.4211465,95.6864118 67.3863694,96.1522941 C67.2665275,96.8458976 67.4226412,97.5590441 67.8210828,98.1381176 C68.2273296,98.5303791 68.7551386,98.7708638 69.3164968,98.8194706 C75.5821656,99.8968235 80.99,94.3237059 84.0503822,88.7272941 C87.467784,82.5484943 89.4660346,75.6798011 89.8987261,68.6244706 C89.9682803,67.2617647 89.9740764,65.9048824 89.9335032,64.548 C89.9219108,64.9381765 89.9219108,65.3225294 89.8987261,65.7127059 Z" id="Path"></path>
                </g>
                <path d="M352,276.514325 C352,276.514325 366.462857,282.772204 376,268.924731" id="Path" stroke="#000000" opacity="0.1"></path>
                <path d="M355,287.924731 C355,287.924731 366.874255,279.120088 382,287.636484" id="Path" stroke="#000000" opacity="0.1"></path>
                <path d="M275,285.924731 C275,285.924731 279.903955,274.477516 293,283.206164" id="Path" stroke="#000000" opacity="0.1"></path>
                <path d="M258,118.136719 L268.259768,108.967648 C268.259768,108.967648 308.041005,106.388847 309.687205,119.758498 C309.687205,119.758498 323.790039,103.907467 353.450623,107.437559 L366,117.317233 L331.313869,132.365971 L297.607342,143.924731 L272.781022,132.939038 L258,118.136719 Z" id="Path" fill="#000000" fill-rule="nonzero" opacity="0.1"></path>
                <path d="M258,119.136719 L268.259768,109.967648 C268.259768,109.967648 308.041005,107.388847 309.687205,120.758498 C309.687205,120.758498 323.790039,104.907467 353.450623,108.437559 L366,118.317233 L331.313869,133.365971 L297.607342,144.924731 L272.781022,133.939038 L258,119.136719 Z" id="Path" fill="#D5D6DB" fill-rule="nonzero"></path>
                <polygon id="Path" fill="#000000" fill-rule="nonzero" opacity="0.1" points="253 119.924731 257.568865 174.495357 306 176.924731 303.899372 122.587139 303.858527 121.672483"></polygon>
                <polygon id="Path" fill="#FF6366" fill-rule="nonzero" points="253 118.924731 257.568865 173.495357 306 175.924731 303.899372 121.587139 303.858527 120.672483"></polygon>
                <polygon id="Path" fill="#000000" fill-rule="nonzero" opacity="0.1" points="368 118.924731 318 126.369602 318 180.924731 366.861247 173.914725"></polygon>
                <polygon id="Path" fill="#FF6366" fill-rule="nonzero" points="368 116.924731 318 124.369602 318 178.924731 366.861247 171.914725"></polygon>
                <polygon id="Path" fill="#FFFFFF" fill-rule="nonzero" opacity="0.3" points="357 130.924731 330 133.875927 330.589622 142.924731 356.982486 140.088368"></polygon>
                <path d="M260.173475,202.342289 L262.92358,209.695986 C262.92358,209.695986 267.010785,213.1784 271.483355,211.437193 C275.955925,209.695986 279.856287,208.831187 281.800628,207.136412 C283.74497,205.441637 286.47172,196.927135 286.47172,196.927135 C286.47172,196.927135 289.19847,187.640697 291.91938,185.319088 C294.640291,182.997478 301.84545,151.011505 291.91938,154.139874 C281.993311,157.268243 274.402787,186.28836 274.402787,186.28836 C274.402787,186.28836 272.651128,188.412632 270.1229,188.609969 C267.594671,188.807306 262.532376,188.2211 261.557286,190.351176 C260.582195,192.481253 257.254043,198.087939 260.173475,202.342289 Z" id="Path" fill="#BE6F72" fill-rule="nonzero"></path>
                <path d="M319,126.531307 C313.689962,127.685319 308.126902,126.347746 304,122.924731 L306.156511,176.654646 C306.156511,176.654646 311.23417,181.955046 319,180.745172 L319,126.531307 Z" id="Path" fill="#000000" fill-rule="nonzero" opacity="0.1"></path>
                <path d="M319,124.531307 C313.689962,125.685319 308.126902,124.347746 304,120.924731 L306.156511,174.654646 C306.156511,174.654646 311.23417,179.955046 319,178.745172 L319,124.531307 Z" id="Path" fill="#FF6366" fill-rule="nonzero"></path>
                <path d="M319,124.531307 C313.689962,125.685319 308.126902,124.347746 304,120.924731 L306.156511,174.654646 C306.156511,174.654646 311.23417,179.955046 319,178.745172 L319,124.531307 Z" id="Path" fill="#000000" fill-rule="nonzero" opacity="0.1"></path>
                <path d="M320,118.924731 C320,118.924731 339.830335,113.195709 345,114.002614" id="Path" fill="#000000" fill-rule="nonzero" opacity="0.1"></path>
                <path d="M297,115.924731 C297,115.924731 277.292386,110.709217 274,112.189119" id="Path" fill="#000000" fill-rule="nonzero" opacity="0.1"></path>
                <path d="M333,118.924731 C333,118.924731 346.220435,114.328991 351,116.513851" id="Path" fill="#000000" fill-rule="nonzero" opacity="0.1"></path>
                <path d="M325,243.924731 C327.154259,242.377692 329.447366,241.015843 331.852528,239.855096 C335.433989,238.205553 342,233.924731 342,233.924731" id="Path" fill="#000000" fill-rule="nonzero" opacity="0.1"></path>
                <path d="M274,183.924731 C274,183.924731 265.603448,191.083482 263.08046,191.712493 C260.557471,192.341505 259,197.924731 259,197.924731" id="Path" fill="#000000" fill-rule="nonzero" opacity="0.1"></path>
                <path d="M363.821154,201.324876 L361.09903,208.695986 C361.09903,208.695986 357.010003,212.1784 352.529598,210.437193 C348.049192,208.695986 344.158775,207.831187 342.207725,206.136412 C340.256675,204.441637 337.534551,195.927135 337.534551,195.927135 C337.534551,195.927135 334.812428,186.640697 332.084463,184.319088 C329.356497,181.997478 322.153968,150.011505 332.084463,153.139874 C342.014957,156.268243 349.608864,185.28836 349.608864,185.28836 C349.608864,185.28836 351.361304,187.412632 353.890659,187.609969 C356.420015,187.807306 361.484567,187.2211 362.460092,189.351176 C363.435617,191.481253 366.741887,197.087939 363.821154,201.324876 Z" id="Path" fill="#BE6F72" fill-rule="nonzero"></path>
                <path d="M358,186.924731 C358,186.924731 364.025157,190.568648 363.999921,194.924731" id="Path" fill="#000000" fill-rule="nonzero" opacity="0.1"></path>
                <circle id="Oval" fill="#BE6F72" fill-rule="nonzero" cx="312" cy="57.9247312" r="26"></circle>
                <path d="M294.916051,50.8417277 C298.080978,50.3559113 300.854669,48.555533 303.879451,47.5210299 C310.647256,45.1948268 318.133301,46.7894476 324.982856,48.8870312 C327.610563,49.6929149 330.279146,50.6016773 333.035318,50.6016773 C335.79149,50.6016773 338.717004,49.4985883 340.124287,47.1723852 C341.420622,45.0347931 341.16953,42.2570666 340.077572,40.0108802 C338.985614,37.7646939 337.157898,35.9586001 335.312664,34.255385 C329.239742,28.642777 321.706982,23.3959601 313.374232,23.9675088 C310.022446,24.2018438 306.816643,25.3735186 303.733467,26.6709341 C299.851257,28.3084207 296.072324,30.1711688 292.41681,32.2492492 C289.608083,33.84387 284.405224,35.9757466 282.787724,38.8906448 C279.108935,45.4577392 289.19349,51.7219127 294.916051,50.8417277 Z" id="Path" fill="#3E373A" fill-rule="nonzero"></path>
                <path d="M340.121103,45.4413657 C338.713954,47.7624141 335.788721,48.8630586 333.032812,48.8630586 C330.276903,48.8630586 327.608576,47.9905269 324.975281,47.1864291 C318.126381,45.0934936 310.646891,43.4967036 303.873894,45.8234548 C300.85524,46.8556655 298.075976,48.6748655 294.911352,49.1310912 C290.298708,49.8382411 282.871767,45.9146999 282.066014,40.9247312 C281.161001,46.6902836 289.773217,51.628927 294.911352,50.8419376 C298.075976,50.3571978 300.85524,48.5608091 303.873894,47.5343012 C310.646891,45.2075501 318.126381,46.8043401 324.975281,48.8972755 C327.608576,49.7013733 330.271064,50.608122 333.032812,50.573905 C335.794559,50.5396881 338.713954,49.4789633 340.121103,47.1522122 C340.850499,45.8864297 341.137478,44.4228863 340.938533,42.9834497 C340.847441,43.8500702 340.568808,44.687885 340.121103,45.4413657 L340.121103,45.4413657 Z" id="Path" fill="#000000" fill-rule="nonzero" opacity="0.1"></path>
                <path d="M550.367763,358.924731 C550.367763,358.924731 553.771891,363.412839 548.79486,370.194224 C543.81783,376.97561 539.719099,382.697223 541.372368,386.924731 C541.372368,386.924731 548.880968,374.334866 554.988881,374.155341 C561.096794,373.975817 557.078431,366.493707 550.367763,358.924731 Z" id="Path" fill="#FF6366" fill-rule="nonzero"></path>
                <path d="M550.279471,358.924731 C550.579339,359.357894 550.815916,359.831318 550.982109,360.330807 C557.0097,367.390117 560.226738,373.980734 554.425617,374.142751 C549.025174,374.298982 542.55045,383.921631 541,386.346099 C541.049594,386.542041 541.109685,386.735195 541.180015,386.924731 C541.180015,386.924731 548.775476,374.345273 554.954048,374.165897 C561.132619,373.986521 557.06777,366.487451 550.279471,358.924731 Z" id="Path" fill="#000000" fill-rule="nonzero" opacity="0.1"></path>
                <path d="M557,364.968655 C557,366.602276 556.773723,367.924731 556.50365,367.924731 C556.233577,367.924731 556,366.602276 556,364.968655 C556,363.335034 556.277372,364.106965 556.554745,364.106965 C556.832117,364.106965 557,363.335034 557,364.968655 Z" id="Path" fill="#FFD037" fill-rule="nonzero"></path>
                <path d="M559.050049,366.948381 C557.489928,367.640072 556.125638,368.060408 556.008139,367.884825 C555.890641,367.709242 557.059099,367.001588 558.61922,366.288614 C560.179341,365.57564 559.565737,366.097069 559.683236,366.288614 C559.800735,366.48016 560.616698,366.251369 559.050049,366.948381 Z" id="Path" fill="#FFD037" fill-rule="nonzero"></path>
                <path d="M532.635276,358.924731 C532.635276,358.924731 529.230988,363.412839 534.208252,370.194224 C539.185515,376.97561 543.284438,382.697223 541.62535,386.924731 C541.62535,386.924731 534.12214,374.334866 528.0082,374.155341 C521.89426,373.975817 525.941516,366.493707 532.635276,358.924731 Z" id="Path" fill="#FF6366" fill-rule="nonzero"></path>
                <path d="M531.722009,358.924731 C531.422189,359.357894 531.185649,359.831318 531.019483,360.330807 C524.992853,367.390117 521.776329,373.980734 527.576524,374.142751 C532.9703,374.298982 539.449798,383.921631 541,386.346099 C540.951317,386.542955 540.889243,386.736279 540.814208,386.924731 C540.814208,386.924731 533.225764,374.345273 527.042372,374.165897 C520.85898,373.986521 524.952211,366.487451 531.722009,358.924731 Z" id="Path" fill="#000000" fill-rule="nonzero" opacity="0.1"></path>
                <path d="M526,364.968655 C526,366.602276 526.218978,367.924731 526.49635,367.924731 C526.773723,367.924731 527,366.602276 527,364.968655 C527,363.335034 526.715328,364.106965 526.445255,364.106965 C526.175182,364.106965 526,363.335034 526,364.968655 Z" id="Path" fill="#FFD037" fill-rule="nonzero"></path>
                <path d="M523.949951,366.948381 C525.510072,367.640072 526.874362,368.060408 526.991861,367.884825 C527.109359,367.709242 525.940901,367.001588 524.38078,366.288614 C522.820659,365.57564 523.434263,366.097069 523.316764,366.288614 C523.199265,366.48016 522.383302,366.251369 523.949951,366.948381 Z" id="Path" fill="#FFD037" fill-rule="nonzero"></path>
                <ellipse id="Oval" fill="#FF6366" fill-rule="nonzero" opacity="0.1" cx="541" cy="416.424731" rx="36" ry="5.5"></ellipse>
                <path d="M559.992367,381.01005 L559.818536,382.404102 L559.575174,384.37421 L559.47667,385.197968 L559.233307,387.168075 L559.129009,387.991834 L558.891441,389.956181 L556.139126,412.364712 C555.895763,414.363623 552.610369,415.924731 548.641241,415.924731 L534.358176,415.924731 C530.389048,415.924731 527.109448,414.363623 526.860291,412.364712 L524.107976,389.956181 L523.864613,387.991834 L523.766109,387.168075 L523.522747,385.197968 L523.418449,384.37421 L523.18088,382.404102 L523.00705,381.01005 C522.87378,379.85794 524.64685,378.924731 526.895057,378.924731 L556.110154,378.924731 C558.352567,378.924731 560.131431,379.875222 559.992367,381.01005 Z" id="Path" fill="#65617D" fill-rule="nonzero"></path>
                <polygon id="Path" fill="#9D9CB5" fill-rule="nonzero" points="560 382.924731 559.760082 384.924731 523.245769 384.924731 523 382.924731"></polygon>
                <polygon id="Path" fill="#9D9CB5" fill-rule="nonzero" points="559 385.924731 558.762127 387.924731 523.243674 387.924731 523 385.924731"></polygon>
                <polygon id="Path" fill="#9D9CB5" fill-rule="nonzero" points="559 387.924731 558.758462 389.924731 524.235787 389.924731 524 387.924731"></polygon>
            </g>
        </g>
    </g>
</svg>