<?xml version="1.0" encoding="UTF-8"?>
<svg width="627px" height="454px" viewBox="0 0 627 454" version="1.1" xmlns="http://www.w3.org/2000/svg" xmlns:xlink="http://www.w3.org/1999/xlink">
    <!-- Generator: Sketch 60 (88103) - https://sketch.com -->
    <title>undraw_searching_p5ux</title>
    <desc>Created with Sketch.</desc>
    <g id="Web" stroke="none" stroke-width="1" fill="none" fill-rule="evenodd">
        <g id="About" transform="translate(-737.000000, -280.000000)" fill-rule="nonzero">
            <g id="undraw_searching_p5ux" transform="translate(737.000000, 280.000000)">
                <rect id="Rectangle" fill="#3F3D56" x="546" y="221" width="5" height="221"></rect>
                <path d="M601.998263,248.248855 C602.353387,325.292573 548.143006,388 548.143006,388 C548.143006,388 493.356861,325.794869 493.001737,248.751145 C492.646613,171.707421 546.856994,109 546.856994,109 C546.856994,109 601.643161,171.205131 601.998263,248.248855 Z" id="Path" fill="#3F3D56"></path>
                <rect id="Rectangle" fill="#3F3D56" x="436" y="326" width="3" height="113"></rect>
                <path d="M465.999107,339.371277 C466.18156,378.859637 438.330352,411 438.330352,411 C438.330352,411 410.183345,379.117083 410.000893,339.628723 C409.81844,300.140363 437.669648,268 437.669648,268 C437.669648,268 465.816661,299.882928 465.999107,339.371277 Z" id="Path" fill="#3F3D56"></path>
                <ellipse id="Oval" fill="#3F3D56" cx="495" cy="442" rx="78" ry="12"></ellipse>
                <path d="M502.177797,162.69671 C495.545484,151.56098 482.423974,151.042006 482.423974,151.042006 C482.423974,151.042006 469.637813,149.41726 461.435572,166.377128 C453.790428,182.185107 443.239152,197.448039 459.736905,201.148585 L462.716875,191.932199 L464.562355,201.834731 C466.911317,202.002612 469.267765,202.042631 471.621128,201.95461 C489.288885,201.387794 506.114754,202.120442 505.572982,195.820579 C504.852799,187.445778 508.55942,173.411513 502.177797,162.69671 Z" id="Path" fill="#2F2E41"></path>
                <path d="M478,184.54321 C478,184.54321 486.571429,196.469136 481.428571,206.123457 C476.285714,215.777778 493.428571,226 493.428571,226 L506,198.740741 C506,198.740741 491.142857,189.08642 495.142857,180 L478,184.54321 Z" id="Path" fill="#FBBEBE"></path>
                <circle id="Oval" fill="#FBBEBE" cx="484" cy="175" r="15"></circle>
                <path d="M432,191.230937 L444.706714,175.59209 C444.706714,175.59209 449.180837,159.199538 455.660878,160.030562 C462.140919,160.861585 453.101412,179.689365 453.101412,179.689365 L440.475753,197 L432,191.230937 Z" id="Path" fill="#FBBEBE"></path>
                <polygon id="Path" fill="#FBBEBE" points="495 403.704545 499.136364 424.727273 508 427 505.636364 402"></polygon>
                <polygon id="Path" fill="#FBBEBE" points="581 380.64 596.510638 402.1 602.829787 405 608 396.3 592.489362 376"></polygon>
                <path d="M491.837724,216.807006 L482.360549,204.286333 C482.360549,204.286333 463.998938,207.684197 462.294523,209.394724 C460.590108,211.105251 466.839631,242.464908 466.839631,242.464908 C466.839631,242.464908 467.975908,251.017542 473.089154,255.578946 L478.2024,259 L520.244648,250.447366 L521.82547,231.673879 C522.989766,217.846978 518.290224,204.16838 508.881895,194 L508.881895,194 L501.566658,195.003634 L491.837724,216.807006 Z" id="Path" fill="#575A89"></path>
                <path d="M464.58251,210.282375 L461.734602,209.133176 L448.634223,207.983977 C448.634223,207.983977 444.077569,206.834778 445.216733,204.53638 C446.355896,202.237983 447.49506,201.663383 445.216733,201.088784 C442.938406,200.514184 442.368824,199.939585 442.938406,198.215787 C443.507988,196.491989 446.925478,193.044392 446.925478,193.044392 L437.242589,185 C437.242589,185 436.718517,185.373955 435.871435,186.06583 C431.063921,189.992505 415.85224,204.159639 426.990119,218.326767 C440.090498,234.99015 455.469203,244.75834 468,241.310744 L464.58251,210.282375 Z" id="Path" fill="#575A89"></path>
                <path d="M476.760852,256.6597 L476.760852,264.58328 C476.760852,264.58328 471.641915,274.204769 473.348227,283.260289 C475.054539,292.315809 475.62331,296.843568 475.62331,296.843568 C475.808955,304.545131 477.150926,312.175775 479.604706,319.482368 C483.586101,330.801767 470.504373,404.943835 486.998726,406.075775 C503.493079,407.207715 512.593411,408.339655 517.712348,402.679955 C522.831285,397.020255 509.180787,299.673418 509.180787,299.673418 C509.180787,299.673418 555.819991,396.454285 565.489094,392.492495 C575.158198,388.530705 599.615341,379.475186 596.771487,374.381456 C593.927634,369.287726 522.262515,256.09373 522.262515,256.09373 L519.987431,251 L476.760852,256.6597 Z" id="Path" fill="#2F2E41"></path>
                <path d="M504.207921,421.046149 C504.207921,421.046149 495.151815,420.480822 495.151815,423.307456 C495.151815,426.134089 490.623762,435.744642 490.623762,435.744642 C490.623762,435.744642 487.227723,447.051174 496.283828,445.920521 C505.339934,444.789868 511,434.613988 511,434.613988 L508.735974,423.872782 L504.207921,421.046149 Z" id="Path" fill="#2F2E41"></path>
                <path d="M599.244748,400.799808 C599.244748,400.799808 591.473277,395.605631 592.028382,399.068416 C592.583487,402.531201 593.138592,411.765294 597.024328,412.342424 C600.910063,412.919555 612.567269,416.38234 613.122374,417.536602 C613.677479,418.690863 627,423.30791 627,415.805209 C627,408.302509 618.673424,402.531201 618.673424,402.531201 L609.236639,395.0285 C609.236639,395.0285 603.130483,394.451369 602.020273,398.491285 C600.910063,402.531201 599.244748,400.799808 599.244748,400.799808 Z" id="Path" fill="#2F2E41"></path>
                <circle id="Oval" fill="#2F2E41" cx="483.5" cy="152.5" r="9.5"></circle>
                <path d="M474.095236,148.5 C474.095751,143.640709 477.937617,139.565078 483,139.053405 C482.652006,139.018212 482.302325,139.000385 481.952384,139 C476.455834,139 472,143.253295 472,148.5 C472,153.746705 476.455834,158 481.952384,158 C482.302325,157.999615 482.652006,157.981788 483,157.946595 C477.937616,157.434919 474.095751,153.359286 474.095236,148.5 Z" id="Path" fill="#2F2E41"></path>
                <polygon id="Path" fill="#2F2E41" points="499.385586 161.742192 486.491418 155 468.684211 157.758376 465 174 474.171308 173.647686 476.733546 167.681039 476.733546 173.549537 480.965102 173.38728 483.421053 163.88728 484.956235 174 500 173.69364"></polygon>
                <path d="M498,257.616066 L478.081319,258.17415 C478.081319,258.17415 461.085099,261.601441 462.038676,254.492151 C462.992252,247.382861 479.573227,249.869379 479.573227,249.869379 L497.723046,247 L498,257.616066 Z" id="Path" fill="#FBBEBE"></path>
                <path d="M514.166566,192.048699 C516.237219,191.732681 518.228169,192.98232 518.860522,194.994906 C522.764318,207.395638 534.790821,248.893825 522.841751,254.587159 C508.767859,261.292907 498.497278,260.998074 498.497278,260.998074 L493,247.354052 L498.004375,242.619718 L503.347239,207.989498 L505.907415,193.309886 L514.166566,192.048699 Z" id="Path" fill="#575A89"></path>
                <polygon id="Path" fill="#000000" opacity="0.4" points="510 216 507.74359 238.545455 488 247 510 241.927273"></polygon>
                <path d="M403.412982,142 L403.412982,142 C409.790842,143.662808 415.308872,147.606756 418.887859,153.06049 L420.738356,155.880319 L420.831474,155.996955 L453.297538,165.343937 C454.535627,165.700384 455.255483,166.96679 454.916052,168.19131 L452.395528,177.284246 C452.229702,177.882469 451.828208,178.390903 451.280045,178.696845 C450.731881,179.002787 450.082332,179.080963 449.475381,178.914045 L417.00117,169.983166 L417.000463,169.984057 L413.738948,171.197284 C407.733293,173.431285 401.145952,173.651558 395,171.823892 L395,171.823892 L403.412982,142 Z" id="Path" fill="#3F3D56"></path>
                <ellipse id="Oval" fill="#575A89" transform="translate(433.874686, 166.700264) rotate(-73.690060) translate(-433.874686, -166.700264) " cx="433.874686" cy="166.700264" rx="1.99283343" ry="3.73472649"></ellipse>
                <circle id="Oval" fill="#3F3D56" cx="436.5" cy="167.5" r="1.5"></circle>
                <ellipse id="Oval" fill="#FF6366" transform="translate(398.968363, 156.175703) rotate(-72.034200) translate(-398.968363, -156.175703) " cx="398.968363" cy="156.175703" rx="15.974698" ry="7.22054464"></ellipse>
                <path d="M405.360742,157.436117 C408.023542,149.268198 407.29933,141.655947 403.795201,140 C404.00608,140.026175 404.21403,140.071945 404.416324,140.136708 C408.270249,141.379721 409.154261,149.259099 406.390792,157.735905 C403.627322,166.212711 398.262858,172.076795 394.408909,170.833823 C394.269192,170.788359 394.1326,170.733893 394,170.670772 C397.790856,171.150894 402.74282,165.466427 405.360742,157.436117 Z" id="Path" fill="#000000" opacity="0.4"></path>
                <path d="M403,140.709953 L329.073047,83.2780684 C316.000316,73.0489259 303.455534,62.1604904 291.487316,50.6549592 C270.413844,30.5373837 241.806323,14.4530377 208.499002,5.88958167 C127.576885,-14.9158332 63.470114,21.9747008 34.3125191,76.1426377 C-10.24341,158.917054 -44.3895991,293.237433 153.170986,221.738792 C196.377236,206.102109 240.112031,204.440013 273.273664,196.203491 L393.350266,171.408438 L403,140.709953 Z" id="Path" fill="#FF6366"></path>
                <circle id="Oval" fill="#F2F2F2" cx="181.5" cy="40.5" r="3.5"></circle>
                <polygon id="Path" fill="#F2F2F2" points="259 48.911 258.089 48.911 258.089 48 257.911 48 257.911 48.911 257 48.911 257 49.089 257.911 49.089 257.911 50 258.089 50 258.089 49.089 259 49.089"></polygon>
                <polygon id="Path" fill="#F2F2F2" points="363 135.911 362.089 135.911 362.089 135 361.911 135 361.911 135.911 361 135.911 361 136.089 361.911 136.089 361.911 137 362.089 137 362.089 136.089 363 136.089"></polygon>
                <polygon id="Path" fill="#F2F2F2" points="355 162.911 354.089 162.911 354.089 162 353.911 162 353.911 162.911 353 162.911 353 163.089 353.911 163.089 353.911 164 354.089 164 354.089 163.089 355 163.089"></polygon>
                <polygon id="Path" fill="#F2F2F2" points="37 184.911 36.089 184.911 36.089 184 35.911 184 35.911 184.911 35 184.911 35 185.089 35.911 185.089 35.911 186 36.089 186 36.089 185.089 37 185.089"></polygon>
                <polygon id="Path" fill="#F2F2F2" points="82 60.911 81.089 60.911 81.089 60 80.911 60 80.911 60.911 80 60.911 80 61.089 80.911 61.089 80.911 62 81.089 62 81.089 61.089 82 61.089"></polygon>
                <polygon id="Path" fill="#F2F2F2" points="260 166.911 259.089 166.911 259.089 166 258.911 166 258.911 166.911 258 166.911 258 167.089 258.911 167.089 258.911 168 259.089 168 259.089 167.089 260 167.089"></polygon>
                <polygon id="Path" fill="#F2F2F2" points="151 24.911 150.089 24.911 150.089 24 149.911 24 149.911 24.911 149 24.911 149 25.089 149.911 25.089 149.911 26 150.089 26 150.089 25.089 151 25.089"></polygon>
                <path d="M151.143577,106 L150,106.223088 C150.357683,109.116856 150.639798,112.074363 150.846348,115 L152,114.872521 C151.793441,111.908653 151.506287,108.925657 151.143577,106 Z" id="Path" fill="#E6E6E6"></path>
                <path d="M148.141869,91 L147,91.3333333 C147.690311,93.5223881 148.307958,95.7661692 148.83218,98 L150,97.7462687 C149.465393,95.4875721 148.837386,93.2189154 148.141869,91 Z" id="Path" fill="#E6E6E6"></path>
                <path d="M142.114667,76 L141,76.4887273 C142.024,78.6218182 142.984,80.8109091 143.853333,83 L145,82.5876364 C144.120027,80.3730705 143.154693,78.1534444 142.114667,76 Z" id="Path" fill="#E6E6E6"></path>
                <path d="M135.07064,62 L134,62.6542553 C135.363135,64.7180532 136.671082,66.856383 137.88521,69 L139,68.4148936 C137.774845,66.2447021 136.450331,64.0850957 135.07064,62 Z" id="Path" fill="#E6E6E6"></path>
                <path d="M125.003824,50 L124,50.8445344 C125.709369,52.8283401 127.372849,54.902834 128.944551,57 L130,56.2234818 C128.416769,54.1036381 126.736086,52.0064664 125.003824,50 Z" id="Path" fill="#E6E6E6"></path>
                <path d="M114.786632,39 L114,39.9079646 C115.768638,41.5380531 117.501285,43.2530973 119.151671,45 L120,44.1451327 C118.329085,42.3769858 116.57583,40.6460071 114.786632,39 Z" id="Path" fill="#E6E6E6"></path>
                <path d="M101.713834,29 L101,29.9462151 C103.113834,31.2260956 105.205534,32.5906375 107.214229,34 L108,33.0985757 C105.963631,31.6743028 103.849797,30.2948406 101.713834,29 Z" id="Path" fill="#E6E6E6"></path>
                <path d="M90,22 L90,23.2 C91.1616039,23.7769231 92.3134872,24.3815385 93.4410693,25 L94,24.0815385 C92.6877149,23.3615231 91.3543815,22.6676769 90,22 Z" id="Path" fill="#E6E6E6"></path>
                <path d="M152,123.024094 L152.985333,123 C153.003435,124.338568 153.004781,125.684235 152.989371,127 L152.004119,126.979302 C152.019101,125.678514 152.017811,124.347766 152,123.024094 Z" id="Path" fill="#E6E6E6"></path>
                <path d="M75.1435768,218 L74,218.223088 C74.3576826,221.116856 74.6397985,224.074363 74.8463476,227 L76,226.872521 C75.7934408,223.908653 75.5062872,220.925657 75.1435768,218 Z" id="Path" fill="#E6E6E6"></path>
                <path d="M72.1418685,204 L71,204.333333 C71.6903114,206.522388 72.3079585,208.766169 72.8321799,211 L74,210.746269 C73.4653927,208.487572 72.8374118,206.218915 72.1418685,204 Z" id="Path" fill="#E6E6E6"></path>
                <path d="M65.1146667,189 L64,189.488727 C65.024,191.621818 65.984,193.810909 66.8533333,196 L68,195.587636 C67.12,193.373071 66.1546667,191.153444 65.1146667,189 Z" id="Path" fill="#E6E6E6"></path>
                <path d="M58.0706402,175 L57,175.654255 C58.3631347,177.718053 59.6710817,179.856383 60.8852097,182 L62,181.414894 C60.7748731,179.244702 59.4503311,177.085096 58.0706402,175 Z" id="Path" fill="#E6E6E6"></path>
                <path d="M48.0038241,162 L47,162.844534 C48.709369,164.82834 50.3728489,166.902834 51.9445507,169 L53,168.223482 C51.4167686,166.103638 49.736086,164.006466 48.0038241,162 Z" id="Path" fill="#E6E6E6"></path>
                <path d="M37.7866324,150 L37,150.907965 C38.7686375,152.538053 40.5012853,154.253097 42.151671,156 L43,155.145133 C41.3290848,153.376986 39.5758303,151.646007 37.7866324,150 Z" id="Path" fill="#E6E6E6"></path>
                <path d="M24.713834,140 L24,140.946215 C26.1138063,142.226096 28.2055336,143.590637 30.2142292,145 L31,144.098576 C28.9636308,142.674303 26.8497968,141.294841 24.713834,140 Z" id="Path" fill="#E6E6E6"></path>
                <path d="M14,134 L14,135.2 C15.1616039,135.776923 16.3134872,136.381538 17.4410693,137 L18,136.081538 C16.6877149,135.361523 15.3543815,134.667677 14,134 Z" id="Path" fill="#E6E6E6"></path>
                <path d="M75,235.024094 L75.9853327,235 C76.003435,236.338568 76.004781,237.684235 75.9893706,239 L75.0041194,238.979302 C75.0191011,237.678514 75.0178109,236.347766 75,235.024094 Z" id="Path" fill="#E6E6E6"></path>
                <path d="M337.143577,163 L336,163.223088 C336.357683,166.116856 336.639798,169.074363 336.846348,172 L338,171.872521 C337.793441,168.908653 337.506287,165.925657 337.143577,163 Z" id="Path" fill="#E6E6E6"></path>
                <path d="M334.141869,148 L333,148.333333 C333.690311,150.522388 334.307958,152.766169 334.83218,155 L336,154.746269 C335.465393,152.487572 334.837412,150.218915 334.141869,148 Z" id="Path" fill="#E6E6E6"></path>
                <path d="M329.114667,132 L328,132.488727 C329.024,134.621818 329.984,136.810909 330.853333,139 L332,138.587636 C331.12,136.373071 330.154667,134.153444 329.114667,132 Z" id="Path" fill="#E6E6E6"></path>
                <path d="M321.07064,118 L320,118.654255 C321.363135,120.718053 322.671082,122.856383 323.88521,125 L325,124.414894 C323.774873,122.244702 322.450331,120.085096 321.07064,118 Z" id="Path" fill="#E6E6E6"></path>
                <path d="M312.003824,105 L311,105.844534 C312.709369,107.82834 314.372849,109.902834 315.944551,112 L317,111.223482 C315.416769,109.103638 313.736086,107.006466 312.003824,105 Z" id="Path" fill="#E6E6E6"></path>
                <path d="M300.786632,94 L300,94.9079646 C301.768638,96.5380531 303.501285,98.2530973 305.151671,100 L306,99.1451327 C304.329085,97.3769858 302.57583,95.6460071 300.786632,94 Z" id="Path" fill="#E6E6E6"></path>
                <path d="M287.713834,85 L287,85.9462151 C289.113834,87.2260956 291.205534,88.5906375 293.214229,90 L294,89.0985757 C291.963631,87.6743028 289.849797,86.2948406 287.713834,85 Z" id="Path" fill="#E6E6E6"></path>
                <path d="M276,77 L276,78.2 C277.161604,78.7769231 278.313487,79.3815385 279.441069,80 L280,79.0815385 C278.687715,78.3615231 277.354382,77.6676769 276,77 Z" id="Path" fill="#E6E6E6"></path>
                <path d="M338,179.024094 L338.985333,179 C339.003435,180.338568 339.004781,181.684235 338.989371,183 L338.004119,182.979302 C338.019101,181.678514 338.017811,180.347766 338,179.024094 Z" id="Path" fill="#E6E6E6"></path>
                <polygon id="Path" fill="#F2F2F2" points="84 113.911338 83.0891994 113.911338 83.0891994 113 82.911338 113 82.911338 113.911338 82 113.911338 82 114.088662 82.911338 114.088662 82.911338 115 83.0891994 115 83.0891994 114.088662 84 114.088662"></polygon>
                <polygon id="Path" fill="#F2F2F2" points="74 171.911338 73.0891994 171.911338 73.0891994 171 72.911338 171 72.911338 171.911338 72 171.911338 72 172.089199 72.911338 172.089199 72.911338 173 73.0891994 173 73.0891994 172.089199 74 172.089199"></polygon>
                <polygon id="Path" fill="#F2F2F2" points="41 222.910801 40.088662 222.910801 40.088662 222 39.9108006 222 39.9108006 222.910801 39 222.910801 39 223.088662 39.9108006 223.088662 39.9108006 224 40.088662 224 40.088662 223.088662 41 223.088662"></polygon>
                <path d="M131.965411,157.580515 C112.66395,129.00802 117.214259,90.6793877 142.674202,67.3771205 C168.134144,44.0748534 206.868093,42.7874757 233.831477,64.3473792 C260.79486,85.9072827 267.901158,123.848491 250.555584,153.639002 C233.21001,183.429513 196.614632,196.134929 164.431266,183.540191 C161.651413,193.421353 152.520742,200.185595 142.218334,199.996118 C131.915926,199.806641 123.042271,192.711273 120.630665,182.734632 C118.219059,172.757992 122.878229,162.418341 131.965411,157.580515 L131.965411,157.580515 Z" id="Path" fill="#3F3D56"></path>
                <path d="M189.394289,79 C205.15595,79 216,87.8833298 216,100.653117 C216,109.109365 211.965011,114.960406 204.189257,119.615612 C196.875843,123.929156 194.396021,127.089569 194.396021,132.556232 L194.396021,132.556232 C194.396023,133.45106 194.046191,134.309238 193.423485,134.941977 C192.80078,135.574716 191.956209,135.930183 191.07557,135.930183 L183.017859,135.930183 C181.229079,135.930183 179.761786,134.490356 179.699423,132.673861 L179.685119,132.257269 C178.970593,123.459319 181.996833,117.99269 189.604469,113.465631 C196.707724,109.152087 199.691932,106.418755 199.691932,101.122925 C199.691932,95.8270948 194.6482,91.9406376 188.385568,91.9406376 C183.62554,91.9406376 179.858501,94.294934 178.13063,98.1386814 C176.890687,100.795571 174.243584,102.477429 171.349879,102.446884 L171.349879,102.446884 C165.890345,102.446884 162.283722,96.5474959 164.836972,91.6440069 C168.875846,83.8872595 177.397618,79 189.394289,79 Z M178.340098,152.20205 C178.340098,147.290597 182.375093,143.404134 187.334759,143.404134 C192.336464,143.404134 196.371441,147.247904 196.371441,152.20205 C196.371441,157.156196 192.336453,161 187.334753,161 C182.333054,161 178.340098,157.15623 178.340098,152.20205 L178.340098,152.20205 Z" id="Shape" fill="#FF6366"></path>
            </g>
        </g>
    </g>
</svg>