<?xml version="1.0" encoding="UTF-8"?>
<svg width="646px" height="390px" viewBox="0 0 646 390" version="1.1" xmlns="http://www.w3.org/2000/svg" xmlns:xlink="http://www.w3.org/1999/xlink">
    <!-- Generator: Sketch 60 (88103) - https://sketch.com -->
    <title>undraw_sign_in_e6hj</title>
    <desc>Created with Sketch.</desc>
    <g id="Web" stroke="none" stroke-width="1" fill="none" fill-rule="evenodd">
        <g id="Sign-Up" transform="translate(-737.000000, -290.000000)" fill-rule="nonzero">
            <g id="undraw_sign_in_e6hj" transform="translate(737.000000, 290.000000)">
                <path d="M44.5547973,365.638137 L82.738535,310.977118 L44.5353958,371.583936 L44.5131229,377.802961 C41.7901496,377.780146 39.0946863,377.6919 36.426733,377.538221 C36.4145792,376.126136 39.660014,298.430451 39.5220606,297.024831 C39.7104169,296.971572 39.8160987,289.676578 39.8908272,289.357134 L0,229.62485 L39.9336634,283.703766 L40.0527329,285.302437 L42.4217782,224.937892 L8.13135105,163.122133 L42.6930137,214.331266 C42.7058477,213.509896 44.328836,89.5677205 44.3448183,88.8029612 C44.3546183,89.2091903 45.0995136,187.436524 45.1049915,187.85046 L77.8997229,148.312591 L45.0735325,196.34634 L44.905872,250.372202 L75.3390466,198.128621 C37.3587625,274.317771 45.7639917,247.656305 44.7939538,288.3561 L89,215.610385 L44.756108,298.836092 L44.5547973,365.638137 Z" id="Path" fill="#D0CDE1"></path>
                <path d="M627.522793,372.751822 L643.396923,350.055208 L627.514728,375.220667 L627.50548,377.802961 C626.373459,377.793487 625.252864,377.756844 624.143696,377.693033 C624.138645,377.106702 625.487869,344.845519 625.43053,344.261866 C625.508834,344.239754 625.552769,341.2107 625.583834,341.07805 L609,316.275717 L625.601628,338.730631 L625.651124,339.394441 L626.635998,314.329575 L612.380437,288.662125 L626.748742,309.925441 C626.754081,309.584384 627.428804,258.120509 627.435446,257.802961 C627.439517,257.97164 627.749194,298.758075 627.751476,298.929951 L641.385228,282.51284 L627.738433,302.45768 L627.668729,324.890567 L640.320711,303.197731 C624.531184,334.833358 628.025493,323.762858 627.622217,340.662437 L646,310.4566 L627.606484,345.013982 L627.522793,372.751822 Z" id="Path" fill="#D0CDE1"></path>
                <ellipse id="Oval" fill="#D0CDE1" cx="322" cy="377.302961" rx="322" ry="12.5"></ellipse>
                <rect id="Rectangle" fill="#3F3D56" x="111" y="149.802961" width="368" height="219"></rect>
                <path d="M201,150.802961 C200.21801,198.520963 161.089936,236.798129 113.088208,236.802961 C112.0548,236.802961 111.0274,236.785041 110,236.7492 L110,150.802961 L201,150.802961 Z" id="Path" fill="#FF6366"></path>
                <path d="M313,368.802961 L278,368.802961 C280.697401,361.593715 287.683917,356.802961 295.5,356.802961 C303.316083,356.802961 310.302599,361.593715 313,368.802961 L313,368.802961 Z" id="Path" fill="#FF6366"></path>
                <path d="M478,255.802961 L478,329.802961 C458.39963,328.838483 443,312.558874 443,292.802961 C443,273.047048 458.39963,256.767439 478,255.802961 Z" id="Path" fill="#FF6366"></path>
                <rect id="Rectangle" fill="#FFFFFF" x="168" y="229.802961" width="254" height="22" rx="11"></rect>
                <rect id="Rectangle" fill="#FFFFFF" x="168" y="272.802961" width="254" height="22" rx="11"></rect>
                <rect id="Rectangle" fill="#FFFFFF" x="333" y="314.802961" width="89" height="22" rx="11"></rect>
                <path d="M536.442051,68.8175854 C536.442051,68.8175854 546.739904,72.7305017 547.312006,85.5872326 C547.884109,98.4439634 544.451494,134.219204 544.451494,134.219204 C544.451494,134.219204 557.03775,152.106827 547.312006,157.137719 C537.586263,162.168612 536.442051,137.014144 536.442051,137.014144 L525,83.9102684 C525,83.9102684 531.865231,68.2585974 536.442051,68.8175854 Z" id="Path" fill="#A0616A"></path>
                <path d="M433.487332,110.68829 C433.487332,110.68829 409.231736,126.431162 408.103563,114.061768 C406.97539,101.692374 415.436654,53.3391401 415.436654,53.3391401 C415.436654,53.3391401 416.564821,32.5360218 428.410575,37.5962684 C440.256328,42.6565149 425.026074,60.0861255 425.026074,60.0861255 L426.718324,99.4433709 L438,98.8811246 L433.487332,110.68829 Z" id="Path" fill="#A0616A"></path>
                <path d="M471.509636,124.826092 C471.509636,124.826092 397.211282,97.25105 401.151345,129.328138 C405.091408,161.405225 424.228864,201.923642 424.228864,201.923642 L430.983265,212.616007 L445.054919,212.616007 L436.04906,154.652151 C436.04906,154.652151 468.132427,172.660339 477.70117,169.846561 C477.70117,169.846561 490.084226,252.571674 494.587161,258.761999 C499.090097,264.952324 506.970217,339.79887 506.970217,339.79887 L514.287478,348.802961 L528.359138,348.802961 L528.359138,222.182836 C528.359138,222.182836 552.56239,143.397018 533.9878,139.457722 C515.41321,135.518426 471.509636,124.826092 471.509636,124.826092 Z" id="Path" fill="#2F2E41"></path>
                <path d="M429.791037,204.541916 C429.791037,204.541916 426.429845,198.379268 420.827857,204.541916 C415.225869,210.704563 401.781093,217.987699 401.781093,217.987699 C401.781093,217.987699 372.650751,224.710587 396.179105,230.313 C419.707459,235.915413 422.508453,230.313 422.508453,230.313 C422.508453,230.313 426.429845,231.433481 429.791037,232.553963 C433.15223,233.674444 455,229.752765 455,226.391309 C455,223.029853 447.582946,202.940934 444.569085,205.982387 C441.555223,209.023841 429.791037,204.541916 429.791037,204.541916 Z" id="Path" fill="#2F2E41"></path>
                <path d="M516.113129,342.080764 C516.113129,342.080764 507.872797,335.187304 505.933897,337.156868 C503.994997,339.126431 493.815765,352.420946 493.815765,352.420946 C493.815765,352.420946 466.671149,373.593696 491.392139,377.040425 C516.113129,380.487155 514.658955,371.131748 514.658955,371.131748 L522.414555,371.131748 C523.384008,371.131748 536.471593,365.22307 535.986866,362.761123 C535.50214,360.299175 529.685434,340.22364 527.746534,341.644589 C525.807634,343.065539 516.113129,342.080764 516.113129,342.080764 Z" id="Path" fill="#2F2E41"></path>
                <circle id="Oval" fill="#A0616A" cx="440" cy="27.8029612" r="19"></circle>
                <path d="M453.813857,25.8029612 C453.813857,25.8029612 468.440529,38.0251811 478.566692,38.0251811 C488.692856,38.0251811 463.940014,60.8029612 463.940014,60.8029612 L442,41.3585241 L453.813857,25.8029612 Z" id="Path" fill="#A0616A"></path>
                <path d="M459.94988,60.7099064 L459.511299,56.2876739 C459.511299,56.2876739 470.651563,36.5732903 474.031043,34.8893348 C477.410522,33.2053792 479.663498,33.2053852 479.663498,33.2053852 C479.663498,33.2053852 490.928409,21.4177384 503.319817,27.5922201 C515.711225,33.7667017 545,73.0588697 545,73.0588697 C545,73.0588697 524.159909,74.7428193 526.976136,91.0210042 C526.976136,91.0210042 547.816228,144.346091 542.183772,144.907408 C536.551317,145.468724 519.653944,141.539502 502.193356,149.39794 C484.732768,157.256377 476.8473,152.204522 476.8473,152.204522 L467.835366,123.016058 C467.835366,123.016058 450.937993,113.473671 451.501227,105.053923 L427,115.999586 L429.252982,95.2308691 L444.178992,78.1107124 C444.178992,78.1107124 441.362771,75.8654403 459.94988,60.7099064 Z" id="Path" fill="#575A89"></path>
                <path d="M422.569443,29.2950722 C421.810065,30.1243279 420.858215,30.7612648 419.794735,31.1517885 C418.706425,31.4533692 417.335283,31.0835427 416.901567,30.0574877 L417.70952,29.0242685 L415.287397,27.5454229 L416.342826,26.3286814 L414.391898,24.2471704 L415.931711,23.0468243 L413,20.9867055 C416.799661,14.8946936 420.908934,8.72641527 426.907834,4.68800171 C432.906734,0.649588145 441.28907,-0.78539817 447.434501,3.03439266 C450.625127,5.01757772 452.881297,8.16521704 454.688566,11.4221677 C458.323193,17.9722503 461.526959,24.3570901 462,31.8029612 C459.716901,29.6184526 456.383747,28.387424 454.100641,26.2028918 C453.089614,25.1488468 451.944186,24.2276016 450.692818,23.4620457 C448.304807,22.1389104 445.447561,22.0218561 442.774152,21.4250082 C440.526301,20.9231374 439.067674,19.9275937 437.367023,18.5043784 C435.343915,16.8113161 435.261497,17.4659558 433.218576,19.3721481 C429.671133,22.6821303 426.121422,25.9897716 422.569443,29.2950722 Z" id="Path" fill="#2F2E41"></path>
            </g>
        </g>
    </g>
</svg>